<svg width="20" height="20" viewBox="0 0 20 20" fill="none" xmlns="http://www.w3.org/2000/svg">
<path d="M16.0456 10.8405C16.5099 10.8405 16.8863 10.4641 16.8863 9.99984C16.8863 9.53556 16.5099 9.15918 16.0456 9.15918H3.95455C3.49028 9.15918 3.11389 9.53556 3.11389 9.99984C3.11389 10.4641 3.49028 10.8405 3.95455 10.8405H16.0456Z" fill="#FF7534"/>
<path d="M3.95455 5.27507H16.0456C16.5099 5.27507 16.8863 4.89868 16.8863 4.43441C16.8863 3.97013 16.5099 3.59375 16.0456 3.59375H3.95455C3.49028 3.59375 3.11389 3.97013 3.11389 4.43441C3.11389 4.89868 3.49028 5.27507 3.95455 5.27507Z" fill="#FF7534"/>
<path d="M9.20215 14.9913C9.20215 14.844 9.08276 14.7246 8.93548 14.7246H3.95455C3.49028 14.7246 3.11389 15.101 3.11389 15.5653C3.11389 16.0295 3.49028 16.4059 3.95455 16.4059H8.93548C9.08276 16.4059 9.20215 16.2865 9.20215 16.1393V14.9913Z" fill="#FF7534"/>
<path d="M16.0456 14.7153H14.7891V13.4588C14.7891 12.9945 14.4127 12.6182 13.9484 12.6182C13.4842 12.6182 13.1078 12.9945 13.1078 13.4588V14.7153H11.8513C11.387 14.7153 11.0106 15.0917 11.0106 15.556C11.0106 16.0203 11.387 16.3966 11.8513 16.3966H13.1078V17.6532C13.1078 18.1174 13.4842 18.4938 13.9484 18.4938C14.4127 18.4938 14.7891 18.1174 14.7891 17.6532V16.3966H16.0456C16.5099 16.3966 16.8863 16.0203 16.8863 15.556C16.8863 15.0917 16.5099 14.7153 16.0456 14.7153Z" fill="#FF7534"/>
</svg>
