<svg width="20" height="20" viewBox="0 0 20 20" fill="none" xmlns="http://www.w3.org/2000/svg">
<path fill-rule="evenodd" clip-rule="evenodd" d="M5 10H4C1.79086 10 0 11.7909 0 14V16C0 18.2091 1.79086 20 4 20H5C7.20914 20 9 18.2091 9 16V14C9 11.7909 7.20914 10 5 10ZM2 14C2 12.8954 2.89543 12 4 12H5C6.10457 12 7 12.8954 7 14V16C7 17.1046 6.10457 18 5 18H4C2.89543 18 2 17.1046 2 16V14Z" fill="#FF7534"/>
<path fill-rule="evenodd" clip-rule="evenodd" d="M7 3.5C7 1.567 5.433 0 3.5 0C1.567 0 0 1.567 0 3.5V4.5C0 6.433 1.567 8 3.5 8C5.433 8 7 6.433 7 4.5V3.5ZM2 3.5C2 2.67157 2.67157 2 3.5 2C4.32843 2 5 2.67157 5 3.5V4.5C5 5.32843 4.32843 6 3.5 6C2.67157 6 2 5.32843 2 4.5V3.5Z" fill="#FF7534"/>
<path fill-rule="evenodd" clip-rule="evenodd" d="M16 9H15C12.7909 9 11 10.7909 11 13V16C11 18.2091 12.7909 20 15 20H16C18.2091 20 20 18.2091 20 16V13C20 10.7909 18.2091 9 16 9ZM13 13C13 11.8954 13.8954 11 15 11H16C17.1046 11 18 11.8954 18 13V16C18 17.1046 17.1046 18 16 18H15C13.8954 18 13 17.1046 13 16V13Z" fill="#FF7534"/>
<path fill-rule="evenodd" clip-rule="evenodd" d="M16.5 0H12.5C10.567 0 9 1.567 9 3.5C9 5.433 10.567 7 12.5 7H16.5C18.433 7 20 5.433 20 3.5C20 1.567 18.433 0 16.5 0ZM11 3.5C11 2.67157 11.6716 2 12.5 2H16.5C17.3284 2 18 2.67157 18 3.5C18 4.32843 17.3284 5 16.5 5H12.5C11.6716 5 11 4.32843 11 3.5Z" fill="#FF7534"/>
</svg>
