<svg width="26" height="26" viewBox="0 0 26 26" fill="none" xmlns="http://www.w3.org/2000/svg">
<path d="M7.52856 22.1719L7.60979 22.0831C7.59555 22.0746 7.5813 22.0661 7.56736 22.0576L7.52856 22.1719Z" fill="white"/>
<path d="M12.0583 6.07927L11.9629 5.8623C11.989 5.93746 12.0208 6.00988 12.0583 6.07927Z" fill="white"/>
<path opacity="0.74" d="M18.2233 22.1828C18.233 22.1774 18.2421 22.1719 18.2515 22.1662C18.2618 22.1598 18.2721 22.1535 18.2821 22.1465C18.2802 22.1474 18.2787 22.1483 18.2769 22.1495C18.2769 22.1498 18.2766 22.1498 18.2763 22.1498C18.236 22.1728 18.1954 22.1959 18.1548 22.2186C18.1687 22.2119 18.1824 22.2053 18.196 22.198C18.199 22.1965 18.2021 22.195 18.2048 22.1932C18.2111 22.1898 18.2172 22.1865 18.2233 22.1828Z" fill="white"/>
<path opacity="0.74" d="M18.5818 20.9336L18.6175 21.0148C18.6118 21 18.606 20.9851 18.6 20.9709C18.5939 20.9584 18.5882 20.9457 18.5818 20.9336Z" fill="white"/>
<path opacity="0.74" d="M18.5999 20.9707C18.6059 20.9849 18.6117 20.9998 18.6174 21.0146L18.6399 21.0659C18.6286 21.0331 18.6147 21.0016 18.5999 20.9707Z" fill="white"/>
<path d="M15.6664 16.0507C15.6664 16.034 15.6646 16.0177 15.661 16.0022L15.6555 15.9892L15.6325 15.9362L15.6267 15.9228L11.7058 6.91011L11.7055 6.9095C11.6273 6.56526 11.3195 6.30859 10.9513 6.30859C10.5834 6.30859 10.2755 6.56526 10.1973 6.9095L10.197 6.91011L5.88037 17.4362C5.88037 17.4362 6.67613 16.2828 10.2758 16.2828C10.3255 16.2768 10.3758 16.2737 10.427 16.2737H15.4695C15.5804 16.2601 15.6664 16.1656 15.6664 16.0507Z" fill="#0A083E"/>
<path d="M14.7979 25.8765C14.2101 25.9578 13.6098 25.9999 12.9998 25.9999C5.82006 25.9999 -0.000244141 20.1796 -0.000244141 12.9999C-0.000244141 10.1238 0.933998 7.46624 2.51521 5.31321C2.66915 5.10352 2.82945 4.89867 2.99551 4.69867C3.19703 4.5623 3.44036 4.48291 3.70188 4.48291C4.39945 4.48291 4.96491 5.04806 4.96491 5.74564C4.96491 5.94443 4.91854 6.13261 4.83673 6.29988C4.72642 6.43412 4.61945 6.57139 4.51551 6.71109C3.21127 8.46806 2.43915 10.6435 2.43915 12.9999C2.43915 15.5872 3.36945 17.9568 4.914 19.7929L5.88036 17.4362C5.88036 17.4362 6.07915 17.1478 6.72824 16.8596C7.37733 16.5714 8.47612 16.2829 10.2761 16.2829C9.79127 16.3414 9.39188 16.6775 9.24097 17.1275L7.56703 22.0578L7.52854 22.1717L7.60976 22.0832C9.18764 23.0214 11.0307 23.5605 12.9998 23.5605C14.8719 23.5605 16.6301 23.0729 18.1549 22.2184C18.1688 22.2117 18.1825 22.205 18.1961 22.1978C18.1992 22.1962 18.2022 22.1947 18.2049 22.1929C18.211 22.1896 18.2173 22.1862 18.2234 22.1826C18.2331 22.1772 18.2422 22.1717 18.2516 22.1659C18.2619 22.1596 18.2722 22.1532 18.2822 22.1462C18.2804 22.1472 18.2788 22.1481 18.277 22.1493C18.5273 21.982 18.6922 21.6975 18.6922 21.3738C18.6922 21.3129 18.6858 21.2538 18.6746 21.1959C18.6749 21.1981 18.6755 21.1999 18.6761 21.2017C19.1201 23.0335 14.8043 25.8723 14.7979 25.8765Z" fill="url(#paint0_linear_592_3305)"/>
<path d="M10.6389 16.2919L10.6392 16.2913C10.6365 16.2913 10.6341 16.291 10.6313 16.291C10.6341 16.2913 10.6365 16.2916 10.6389 16.2919Z" fill="white"/>
<path d="M7.00198 4.09774C7.38469 3.71503 7.38469 3.09454 7.00198 2.71183C6.61927 2.32912 5.99877 2.32912 5.61606 2.71183C5.23335 3.09454 5.23335 3.71503 5.61606 4.09774C5.99877 4.48045 6.61927 4.48045 7.00198 4.09774Z" fill="#0A083E"/>
<path opacity="0.19" d="M18.5762 20.9205L18.5819 20.9335C18.5843 20.9381 18.5868 20.9426 18.5889 20.9471C18.5892 20.9477 18.5895 20.9484 18.5898 20.949C18.5925 20.9541 18.5949 20.9593 18.5974 20.9641C18.5871 20.9405 18.5765 20.9174 18.5649 20.895L18.5762 20.9205Z" fill="white"/>
<path d="M25.9997 13C25.9997 19.5697 21.1267 25.0009 14.7979 25.8767C14.8042 25.8724 19.12 23.0336 18.676 21.2018C18.6754 21.2 18.6748 21.1982 18.6745 21.1961C18.6657 21.1521 18.6548 21.1088 18.64 21.067C18.64 21.0667 18.64 21.0664 18.6397 21.0661C18.6367 21.0567 18.633 21.0473 18.6294 21.0379C18.6245 21.0252 18.6194 21.0124 18.6136 20.9997C18.61 20.9909 18.606 20.9821 18.6018 20.9736C18.6003 20.9703 18.5988 20.9676 18.5973 20.9642C18.587 20.9406 18.576 20.9176 18.5648 20.8952L12.0582 6.07909L11.9627 5.86212L11.9624 5.86152C11.9079 5.70545 11.8785 5.53788 11.8785 5.36364C11.8785 4.52697 12.557 3.84848 13.3936 3.84848C14.0018 3.84848 14.5267 4.20697 14.7676 4.72455L14.7685 4.72636L14.7897 4.77394L14.7906 4.77636L21.3439 19.4736C22.733 17.6858 23.5603 15.4394 23.5603 13C23.5603 7.16758 18.8321 2.43939 12.9997 2.43939C12.0254 2.43939 11.0821 2.57152 10.1864 2.81848C10.0176 2.86515 9.84999 2.91576 9.68453 2.9703C9.65453 2.97273 9.62423 2.97424 9.59363 2.97424C8.90756 2.97424 8.35181 2.39848 8.35181 1.68848C8.35181 1.28485 8.5315 0.924848 8.81272 0.689091C9.11696 0.585758 9.42605 0.49303 9.73999 0.412121C10.7815 0.14303 11.8739 0 12.9997 0C20.1794 0 25.9997 5.8203 25.9997 13Z" fill="#FF6A0D"/>
<path opacity="0.19" d="M18.2763 22.1498C18.2681 22.1556 18.2599 22.1607 18.2515 22.1662C18.2618 22.1598 18.2721 22.1535 18.2821 22.1465C18.2803 22.1474 18.2787 22.1483 18.2769 22.1495C18.2769 22.1498 18.2766 22.1498 18.2763 22.1498Z" fill="white"/>
<path opacity="0.19" d="M18.576 20.9204L18.5754 20.9222C18.58 20.9304 18.5842 20.9386 18.5888 20.9471C18.5867 20.9425 18.5842 20.938 18.5818 20.9334L18.576 20.9204Z" fill="white"/>
<defs>
<linearGradient id="paint0_linear_592_3305" x1="-0.627605" y1="8.88855" x2="17.9411" y2="26.7145" gradientUnits="userSpaceOnUse">
<stop offset="4.79233e-09" stop-color="#FF6A0D"/>
<stop offset="1" stop-color="#F1432B"/>
</linearGradient>
</defs>
</svg>
