<svg width="26" height="26" viewBox="0 0 26 26" fill="none" xmlns="http://www.w3.org/2000/svg">
<path d="M7.52881 22.1719L7.61003 22.0831C7.59579 22.0746 7.58155 22.0661 7.5676 22.0576L7.52881 22.1719Z" fill="white"/>
<path d="M12.0583 6.07927L11.9629 5.8623C11.989 5.93746 12.0208 6.00988 12.0583 6.07927Z" fill="white"/>
<path opacity="0.74" d="M18.2238 22.1828C18.2335 22.1774 18.2425 22.1719 18.2519 22.1662C18.2622 22.1598 18.2725 22.1535 18.2825 22.1465C18.2807 22.1474 18.2792 22.1483 18.2774 22.1495C18.2774 22.1498 18.2771 22.1498 18.2768 22.1498C18.2365 22.1728 18.1959 22.1959 18.1553 22.2186C18.1692 22.2119 18.1828 22.2053 18.1965 22.198C18.1995 22.1965 18.2025 22.195 18.2053 22.1932C18.2116 22.1898 18.2177 22.1865 18.2238 22.1828Z" fill="white"/>
<path opacity="0.74" d="M18.582 20.9336L18.6178 21.0148C18.612 21 18.6063 20.9851 18.6002 20.9709C18.5942 20.9584 18.5884 20.9457 18.582 20.9336Z" fill="white"/>
<path opacity="0.74" d="M18.6001 20.9707C18.6062 20.9849 18.6119 20.9998 18.6177 21.0146L18.6401 21.0659C18.6289 21.0331 18.6149 21.0016 18.6001 20.9707Z" fill="white"/>
<path d="M15.6664 16.0507C15.6664 16.034 15.6646 16.0177 15.661 16.0022L15.6555 15.9892L15.6325 15.9362L15.6267 15.9228L11.7058 6.91011L11.7055 6.9095C11.6273 6.56526 11.3195 6.30859 10.9513 6.30859C10.5834 6.30859 10.2755 6.56526 10.1973 6.9095L10.197 6.91011L5.88037 17.4362C5.88037 17.4362 6.67613 16.2828 10.2758 16.2828C10.3255 16.2768 10.3758 16.2737 10.427 16.2737H15.4695C15.5804 16.2601 15.6664 16.1656 15.6664 16.0507Z" fill="#FF6A0D"/>
<path d="M14.7982 25.8765C14.2103 25.9578 13.61 25.9999 13 25.9999C5.8203 25.9999 0 20.1796 0 12.9999C0 10.1238 0.934242 7.46624 2.51545 5.31321C2.66939 5.10352 2.8297 4.89867 2.99576 4.69867C3.19727 4.5623 3.44061 4.48291 3.70212 4.48291C4.3997 4.48291 4.96515 5.04806 4.96515 5.74564C4.96515 5.94443 4.91879 6.13261 4.83697 6.29988C4.72667 6.43412 4.6197 6.57139 4.51576 6.71109C3.21151 8.46806 2.43939 10.6435 2.43939 12.9999C2.43939 15.5872 3.3697 17.9568 4.91424 19.7929L5.88061 17.4362C5.88061 17.4362 6.07939 17.1478 6.72849 16.8596C7.37758 16.5714 8.47636 16.2829 10.2764 16.2829C9.79152 16.3414 9.39212 16.6775 9.24121 17.1275L7.56727 22.0578L7.52879 22.1717L7.61 22.0832C9.18788 23.0214 11.0309 23.5605 13 23.5605C14.8721 23.5605 16.6303 23.0729 18.1552 22.2184C18.1691 22.2117 18.1827 22.205 18.1964 22.1978C18.1994 22.1962 18.2024 22.1947 18.2052 22.1929C18.2112 22.1896 18.2176 22.1862 18.2236 22.1826C18.2333 22.1772 18.2424 22.1717 18.2518 22.1659C18.2621 22.1596 18.2724 22.1532 18.2824 22.1462C18.2806 22.1472 18.2791 22.1481 18.2773 22.1493C18.5276 21.982 18.6924 21.6975 18.6924 21.3738C18.6924 21.3129 18.6861 21.2538 18.6749 21.1959C18.6752 21.1981 18.6758 21.1999 18.6764 21.2017C19.1203 23.0335 14.8045 25.8723 14.7982 25.8765Z" fill="white"/>
<path d="M10.6389 16.2919L10.6392 16.2913C10.6365 16.2913 10.6341 16.291 10.6313 16.291C10.6341 16.2913 10.6365 16.2916 10.6389 16.2919Z" fill="white"/>
<path d="M6.30959 4.3848C6.85083 4.3848 7.28959 3.94604 7.28959 3.4048C7.28959 2.86357 6.85083 2.4248 6.30959 2.4248C5.76835 2.4248 5.32959 2.86357 5.32959 3.4048C5.32959 3.94604 5.76835 4.3848 6.30959 4.3848Z" fill="#FF6A0D"/>
<path opacity="0.19" d="M18.5762 20.9205L18.5819 20.9335C18.5843 20.9381 18.5868 20.9426 18.5889 20.9471C18.5892 20.9477 18.5895 20.9484 18.5898 20.949C18.5925 20.9541 18.5949 20.9593 18.5974 20.9641C18.5871 20.9405 18.5765 20.9174 18.5649 20.895L18.5762 20.9205Z" fill="white"/>
<path d="M25.9999 13C25.9999 19.5697 21.1269 25.0009 14.7981 25.8767C14.8045 25.8724 19.1202 23.0336 18.6763 21.2018C18.6757 21.2 18.6751 21.1982 18.6748 21.1961C18.666 21.1521 18.6551 21.1088 18.6402 21.067C18.6402 21.0667 18.6402 21.0664 18.6399 21.0661C18.6369 21.0567 18.6333 21.0473 18.6296 21.0379C18.6248 21.0252 18.6196 21.0124 18.6139 20.9997C18.6102 20.9909 18.6063 20.9821 18.6021 20.9736C18.6005 20.9703 18.599 20.9676 18.5975 20.9642C18.5872 20.9406 18.5763 20.9176 18.5651 20.8952L12.0584 6.07909L11.963 5.86212L11.9627 5.86152C11.9081 5.70545 11.8787 5.53788 11.8787 5.36364C11.8787 4.52697 12.5572 3.84848 13.3939 3.84848C14.0021 3.84848 14.5269 4.20697 14.7678 4.72455L14.7687 4.72636L14.7899 4.77394L14.7908 4.77636L21.3442 19.4736C22.7333 17.6858 23.5605 15.4394 23.5605 13C23.5605 7.16758 18.8324 2.43939 12.9999 2.43939C12.0257 2.43939 11.0824 2.57152 10.1866 2.81848C10.0178 2.86515 9.85023 2.91576 9.68478 2.9703C9.65478 2.97273 9.62448 2.97424 9.59387 2.97424C8.90781 2.97424 8.35205 2.39848 8.35205 1.68848C8.35205 1.28485 8.53175 0.924848 8.81296 0.689091C9.1172 0.585758 9.42629 0.49303 9.74023 0.412121C10.7817 0.14303 11.8742 0 12.9999 0C20.1796 0 25.9999 5.8203 25.9999 13Z" fill="white"/>
<path opacity="0.19" d="M18.2768 22.1498C18.2686 22.1556 18.2604 22.1607 18.252 22.1662C18.2623 22.1598 18.2726 22.1535 18.2826 22.1465C18.2807 22.1474 18.2792 22.1483 18.2774 22.1495C18.2774 22.1498 18.2771 22.1498 18.2768 22.1498Z" fill="white"/>
<path opacity="0.19" d="M18.5763 20.9204L18.5757 20.9222C18.5802 20.9304 18.5845 20.9386 18.589 20.9471C18.5869 20.9425 18.5845 20.938 18.582 20.9334L18.5763 20.9204Z" fill="white"/>
</svg>
