<svg width="171" height="99" viewBox="0 0 171 99" fill="none" xmlns="http://www.w3.org/2000/svg">
<path d="M36.7692 34.0372C37.4627 34.7486 37.4627 35.9001 36.7692 36.5943C36.0588 37.3056 34.9087 37.3056 34.1983 36.5943L14.6625 19.254C13.36 17.9331 13.36 15.7994 14.6625 14.4785C15.9817 13.1578 18.1128 13.1578 19.4322 14.4785L36.7692 34.0372ZM51.3831 29.482C51.3831 30.4811 50.5713 31.294 49.5732 31.294C48.5753 31.294 47.7635 30.4811 47.7635 29.482L46.2074 3.38691C46.2074 1.52405 47.7127 0 49.5732 0C51.4339 0 52.9392 1.52405 52.9392 3.38691L51.3831 29.482ZM35.0948 41.81C35.839 42.1318 36.2111 42.9954 35.8896 43.7574C35.5853 44.5025 34.7225 44.8581 33.9614 44.5532L13.7829 37.5764C12.379 36.9838 11.7194 35.3751 12.2944 33.9696C12.8865 32.5641 14.4933 31.8866 15.8972 32.4794L35.0948 41.81ZM44.702 33.8002C45.0233 34.5453 44.6681 35.4089 43.907 35.7307C43.1459 36.0356 42.2833 35.6798 41.9787 34.9347L32.6422 15.7148C32.067 14.3093 32.7267 12.6835 34.1306 12.1078C35.5345 11.532 37.1413 12.1924 37.7334 13.598L44.702 33.8002ZM44.702 65.0603C45.0233 64.2983 44.6681 63.4347 43.907 63.1128C43.1459 62.8081 42.2833 63.1637 41.9787 63.9257L32.6422 83.1458C32.067 84.5513 32.7267 86.16 34.1306 86.7357C35.5345 87.3285 37.1413 86.6511 37.7334 85.2455L44.702 65.0603ZM35.0948 57.0336C35.839 56.7119 36.2111 55.8483 35.8896 55.1031C35.5853 54.341 34.7225 53.9854 33.9614 54.2903L13.7829 61.2841C12.379 61.8597 11.7194 63.4686 12.2944 64.8741C12.8865 66.2964 14.4933 66.9569 15.8972 66.3812L35.0948 57.0336ZM51.3831 69.3784C51.3831 68.3624 50.5713 67.5665 49.5732 67.5665C48.5753 67.5665 47.7635 68.3624 47.7635 69.3784L46.2074 95.4737C46.2074 97.3364 47.7127 98.8435 49.5732 98.8435C51.4339 98.8435 52.9392 97.3364 52.9392 95.4737L51.3831 69.3784ZM36.7692 64.8063C37.4627 64.0951 37.4627 62.9606 36.7692 62.2492C36.0588 61.5381 34.9087 61.5381 34.1983 62.2492L14.6625 79.5897C13.36 80.9104 13.36 83.0441 14.6625 84.365C15.9817 85.6859 18.1128 85.6859 19.4322 84.365L36.7692 64.8063ZM29.6483 47.6183C30.6464 47.6183 31.4581 48.4312 31.4581 49.4302C31.4581 50.4293 30.6464 51.2422 29.6483 51.2422L3.58361 52.8002C1.72311 52.8002 0.217773 51.2929 0.217773 49.4302C0.217773 47.5676 1.72311 46.0435 3.58361 46.0435L29.6483 47.6183Z" fill="url(#paint0_radial)"/>
<path d="M51.5016 38.9819C53.8018 38.9819 55.7301 39.5408 57.2693 40.6415C58.8085 41.7423 59.5866 43.4018 59.5866 45.6201V58.5069C59.5866 58.9301 59.4343 59.2859 59.1467 59.5906C58.8593 59.8785 58.5209 60.014 58.1149 60.014H48.4738C46.5964 60.014 45.0404 59.3366 43.8056 57.9989C42.5709 56.661 41.9451 54.9508 41.9451 52.8678C41.9451 50.9543 42.5878 49.3456 43.8733 48.0417C45.1588 46.7547 46.6979 46.0942 48.5247 46.0942H56.6435V45.4846C56.6435 44.4855 56.153 43.6389 55.172 42.9615C54.1908 42.2841 53.0745 41.9285 51.806 41.9285C50.1314 41.9285 48.643 42.2841 47.3575 42.9784C47.0363 43.1478 46.7487 43.2324 46.495 43.2324C46.089 43.2324 45.7169 43.0461 45.4125 42.6736C45.1756 42.3519 45.0572 42.064 45.0572 41.81C45.0572 41.2512 45.3448 40.8109 45.92 40.4553C47.459 39.473 49.3027 38.9819 51.5016 38.9819ZM169.105 42.0301L169.495 42.6059C169.513 42.6566 169.528 42.7075 169.513 42.7753C169.513 42.826 169.477 42.8769 169.428 42.8938C169.377 42.9276 169.326 42.9276 169.274 42.9106C169.207 42.8938 169.156 42.8599 169.14 42.809L168.699 42.1148H168.159V42.7075C168.159 42.7583 168.142 42.826 168.108 42.8599C168.075 42.9106 168.023 42.9276 167.972 42.9276C167.905 42.9276 167.854 42.9106 167.821 42.8599C167.769 42.826 167.753 42.7583 167.753 42.7075V40.523C167.753 40.4553 167.787 40.4044 167.821 40.3705C167.872 40.3198 167.921 40.3029 167.972 40.3029H168.802C169.056 40.3198 169.258 40.4044 169.41 40.5738C169.58 40.76 169.647 40.9633 169.647 41.2173C169.647 41.3866 169.613 41.539 169.513 41.6914C169.41 41.8439 169.274 41.9624 169.105 42.0301ZM168.159 41.7253H168.802C168.937 41.6914 169.038 41.6238 169.123 41.522C169.207 41.4205 169.258 41.3189 169.258 41.2173C169.258 41.0819 169.207 40.9633 169.123 40.8618C169.022 40.76 168.902 40.7093 168.75 40.7093H168.159V41.7253ZM168.565 39.2022C169.241 39.2022 169.816 39.4393 170.291 39.9134C170.763 40.3875 171 40.9633 171 41.6406C171 42.318 170.763 42.8938 170.291 43.3679C169.816 43.842 169.241 44.0791 168.565 44.0791C167.888 44.0791 167.312 43.842 166.84 43.3679C166.365 42.8938 166.129 42.318 166.129 41.6406C166.129 40.9633 166.365 40.3875 166.84 39.9134C167.312 39.4393 167.888 39.2022 168.565 39.2022ZM167.178 43.0293C167.549 43.4186 168.023 43.605 168.565 43.605C169.105 43.605 169.562 43.4186 169.952 43.0293C170.324 42.6566 170.527 42.1825 170.527 41.6406C170.527 41.0988 170.324 40.6415 169.952 40.252C169.562 39.8625 169.089 39.6763 168.547 39.6763C168.006 39.6763 167.549 39.8625 167.178 40.252C166.788 40.6415 166.603 41.0988 166.603 41.6406C166.603 42.1825 166.788 42.6566 167.178 43.0293ZM56.6435 57.0675V49.0407H48.6092C47.5943 49.0407 46.7317 49.3795 45.9875 50.0737C45.2603 50.7512 44.8882 51.6824 44.8882 52.8678C44.9219 54.1888 45.2772 55.2218 45.9537 55.9668C46.6303 56.6949 47.5098 57.0675 48.6092 57.0675H56.6435ZM93.5332 39.2022C93.99 39.2022 94.379 39.3207 94.7003 39.5748C95.0218 39.8118 95.1739 40.1504 95.1739 40.5569C95.1739 40.8448 95.1402 41.0649 95.0386 41.2343L88.3914 58.7609C88.273 59.0826 88.1716 59.3196 88.0869 59.489C88.0024 59.6752 87.8332 59.8277 87.6133 59.9971C87.3765 60.1495 87.1059 60.2341 86.7844 60.2341C86.497 60.2341 86.2602 60.1665 86.0741 60.031C85.8881 59.9124 85.7528 59.76 85.6681 59.6076C85.5836 59.4382 85.4822 59.2011 85.3638 58.8964C85.3638 58.8286 83.6047 54.2395 80.0865 45.0951L74.8093 59.0656C74.674 59.4721 74.5048 59.76 74.3019 59.9462C74.0988 60.1325 73.7775 60.2341 73.3377 60.2341C72.6273 60.2341 72.1707 59.8107 71.9677 58.981L65.1682 41.2004C65.1174 40.9633 65.0837 40.7939 65.0837 40.6754C65.0837 40.2689 65.2358 39.9303 65.5234 39.6424C65.811 39.3545 66.1831 39.2022 66.6397 39.2022C67.2824 39.2022 67.7223 39.5408 67.976 40.2013L73.3885 54.2903L78.6656 40.4553C78.9871 39.6254 79.4776 39.2022 80.1373 39.2022C80.5939 39.2022 80.9153 39.2868 81.0844 39.4393C81.2536 39.6085 81.4228 39.9473 81.6087 40.4553L86.8691 54.341L92.231 40.252C92.5014 39.5578 92.9243 39.2022 93.5332 39.2022ZM109.027 38.9819C111.327 38.9819 113.255 39.5408 114.794 40.6415C116.334 41.7423 117.112 43.4018 117.112 45.6201V58.5069C117.112 58.9301 116.959 59.2859 116.672 59.5906C116.384 59.8785 116.046 60.014 115.64 60.014H105.999C104.122 60.014 102.565 59.3366 101.331 57.9989C100.096 56.661 99.4701 54.9508 99.4701 52.8678C99.4701 50.9543 100.113 49.3456 101.398 48.0417C102.667 46.7547 104.223 46.0942 106.033 46.0942H114.169V45.4846C114.169 44.4855 113.678 43.6389 112.697 42.9615C111.716 42.2841 110.6 41.9285 109.331 41.9285C107.657 41.9285 106.168 42.2841 104.866 42.9784C104.561 43.1478 104.274 43.2324 104.003 43.2324C103.597 43.2324 103.242 43.0461 102.921 42.6736C102.701 42.3519 102.582 42.064 102.582 41.81C102.582 41.2512 102.87 40.8109 103.445 40.4553C104.967 39.473 106.828 38.9819 109.027 38.9819ZM114.169 57.0675V49.0407H106.134C105.119 49.0407 104.24 49.3795 103.513 50.0737C102.768 50.7512 102.413 51.6824 102.413 52.8678C102.43 54.1888 102.785 55.2218 103.462 55.9668C104.139 56.6949 105.035 57.0675 106.134 57.0675H114.169ZM132.69 49.5318L140.47 57.6771C140.758 58.0835 140.893 58.4052 140.893 58.6254C140.893 58.998 140.758 59.3705 140.47 59.7091C140.183 60.0647 139.844 60.2341 139.472 60.2341C139.1 60.2341 138.745 60.0647 138.423 59.7091L130.744 51.7333L129.002 53.6807V58.6761C129.002 59.7091 128.512 60.2341 127.531 60.2341C126.55 60.2341 126.076 59.7091 126.076 58.6761V30.8876C126.076 29.9224 126.55 29.4481 127.531 29.4481C128.512 29.4481 129.002 29.9394 129.002 30.9215V49.2608L137.476 39.6763C137.798 39.3714 138.136 39.2022 138.525 39.2022C138.897 39.2022 139.252 39.3714 139.574 39.6763C139.912 39.998 140.081 40.3537 140.081 40.76C140.081 41.0479 139.929 41.3698 139.641 41.7253L132.69 49.5318ZM155.084 39.2022C157.975 39.2022 160.428 40.2183 162.459 42.2164C164.488 44.2315 165.537 46.6531 165.587 49.4811C165.587 50.6157 164.929 51.1744 163.609 51.1744H147.777C148.098 52.8509 148.944 54.2903 150.331 55.4925C151.718 56.678 153.308 57.2876 155.084 57.2876C157.587 57.2876 159.6 56.661 161.088 55.4249C161.478 55.1031 161.832 54.9508 162.171 54.9508C162.559 54.9508 162.898 55.0693 163.186 55.3403C163.491 55.5943 163.643 55.9329 163.643 56.3394C163.643 56.8304 163.473 57.2369 163.134 57.5924C161.291 59.3536 158.602 60.2341 155.084 60.2341C152.259 60.2341 149.824 59.235 147.76 57.2199C145.697 55.2048 144.665 52.7324 144.665 49.7858C144.665 46.8055 145.68 44.2994 147.692 42.2673C149.705 40.2183 152.175 39.2022 155.084 39.2022ZM147.777 48.228H162.475C162.138 46.5176 161.275 45.0782 159.888 43.9099C158.501 42.7414 156.91 42.1486 155.084 42.1486C153.392 42.1486 151.82 42.7414 150.399 43.9099C148.978 45.0782 148.098 46.5176 147.777 48.228Z" fill="white"/>
<path d="M104.968 63.8241C105.052 63.8241 105.137 63.8411 105.187 63.892C105.255 63.9427 105.289 64.0105 105.289 64.0782C105.289 64.146 105.272 64.1799 105.255 64.2136L103.97 67.6005C103.953 67.6512 103.936 67.7021 103.919 67.736C103.902 67.7698 103.868 67.8037 103.817 67.8376C103.784 67.8715 103.716 67.8715 103.665 67.8715C103.614 67.8715 103.564 67.8715 103.53 67.8376C103.496 67.8206 103.462 67.7867 103.445 67.7528C103.428 67.7191 103.411 67.6852 103.395 67.6175C103.395 67.6005 103.039 66.72 102.363 64.9587L101.348 67.6512C101.314 67.736 101.28 67.7867 101.246 67.8206C101.213 67.8546 101.145 67.8715 101.06 67.8715C100.925 67.8715 100.84 67.8037 100.79 67.6343L99.4874 64.2136C99.4705 64.1629 99.4705 64.129 99.4705 64.1121C99.4705 64.0275 99.5043 63.9596 99.555 63.9089C99.6058 63.8581 99.6734 63.8241 99.7748 63.8241C99.8934 63.8241 99.9779 63.892 100.029 64.0105L101.077 66.7368L102.092 64.0614C102.16 63.9089 102.244 63.8241 102.38 63.8241C102.464 63.8241 102.532 63.8411 102.566 63.875C102.6 63.892 102.633 63.9596 102.667 64.0614L103.682 66.7368L104.714 64.0275C104.765 63.892 104.849 63.8241 104.968 63.8241ZM111.09 63.8241C111.175 63.8241 111.26 63.8411 111.31 63.892C111.378 63.9427 111.412 64.0105 111.412 64.0782C111.412 64.146 111.395 64.1799 111.378 64.2136L110.093 67.6005C110.076 67.6512 110.059 67.7021 110.042 67.736C110.025 67.7698 109.991 67.8037 109.94 67.8376C109.907 67.8715 109.839 67.8715 109.788 67.8715C109.737 67.8715 109.687 67.8715 109.653 67.8376C109.619 67.8206 109.585 67.7867 109.568 67.7528C109.551 67.7191 109.534 67.6852 109.518 67.6175C109.518 67.6005 109.162 66.72 108.486 64.9587L107.471 67.6512C107.437 67.736 107.403 67.7867 107.369 67.8206C107.336 67.8546 107.268 67.8715 107.183 67.8715C107.048 67.8715 106.963 67.8037 106.913 67.6343L105.61 64.2136C105.593 64.1629 105.593 64.129 105.593 64.1121C105.593 64.0275 105.627 63.9596 105.678 63.9089C105.729 63.8581 105.796 63.8241 105.898 63.8241C106.016 63.8241 106.101 63.892 106.151 64.0105L107.2 66.7368L108.215 64.0614C108.283 63.9089 108.367 63.8241 108.503 63.8241C108.587 63.8241 108.655 63.8411 108.689 63.875C108.722 63.892 108.756 63.9596 108.79 64.0614L109.805 66.7368L110.837 64.0275C110.888 63.892 110.972 63.8241 111.09 63.8241ZM117.213 63.8241C117.298 63.8241 117.383 63.8411 117.433 63.892C117.501 63.9427 117.535 64.0105 117.535 64.0782C117.535 64.146 117.518 64.1799 117.501 64.2136L116.215 67.6005C116.199 67.6512 116.182 67.7021 116.165 67.736C116.148 67.7698 116.114 67.8037 116.063 67.8376C116.029 67.8715 115.962 67.8715 115.911 67.8715C115.86 67.8715 115.81 67.8715 115.776 67.8376C115.742 67.8206 115.708 67.7867 115.691 67.7528C115.674 67.7191 115.657 67.6852 115.64 67.6175C115.64 67.6005 115.285 66.72 114.609 64.9587L113.594 67.6512C113.56 67.736 113.526 67.7867 113.492 67.8206C113.459 67.8546 113.391 67.8715 113.306 67.8715C113.171 67.8715 113.086 67.8037 113.036 67.6343L111.733 64.2136C111.716 64.1629 111.716 64.129 111.716 64.1121C111.716 64.0275 111.75 63.9596 111.801 63.9089C111.852 63.8581 111.919 63.8241 112.021 63.8241C112.139 63.8241 112.224 63.892 112.274 64.0105L113.323 66.7368L114.338 64.0614C114.406 63.9089 114.49 63.8241 114.625 63.8241C114.71 63.8241 114.778 63.8411 114.812 63.875C114.845 63.892 114.879 63.9596 114.913 64.0614L115.928 66.7368L116.96 64.0275C117.01 63.892 117.095 63.8241 117.213 63.8241ZM118.059 67.8037C117.975 67.736 117.941 67.6512 117.941 67.5497C117.941 67.4311 117.975 67.3465 118.059 67.2787C118.127 67.1941 118.211 67.1602 118.33 67.1602C118.431 67.1602 118.516 67.1941 118.6 67.2787C118.668 67.3465 118.702 67.4311 118.702 67.5497C118.702 67.6512 118.668 67.736 118.6 67.8037C118.516 67.8883 118.431 67.9222 118.33 67.9222C118.211 67.9222 118.127 67.8883 118.059 67.8037ZM121.273 63.7735C121.713 63.7735 122.085 63.892 122.389 64.0951C122.677 64.3154 122.829 64.637 122.829 65.0605V67.5497C122.829 67.6343 122.812 67.7021 122.744 67.7528C122.694 67.8037 122.626 67.8376 122.541 67.8376H120.681C120.326 67.8376 120.021 67.7021 119.784 67.4481C119.548 67.1941 119.429 66.8555 119.429 66.449C119.429 66.0934 119.548 65.7716 119.801 65.5346C120.038 65.2805 120.342 65.1451 120.698 65.1451H122.271V65.0435C122.271 64.8402 122.169 64.671 121.983 64.5524C121.797 64.417 121.577 64.3491 121.324 64.3491C121.002 64.3491 120.715 64.417 120.461 64.5524C120.41 64.5862 120.359 64.6031 120.309 64.6031C120.224 64.6031 120.156 64.5694 120.089 64.4846C120.055 64.4339 120.021 64.383 120.021 64.3322C120.021 64.2136 120.089 64.129 120.19 64.0614C120.495 63.875 120.85 63.7735 121.273 63.7735ZM122.271 67.2617V65.7207H120.715C120.512 65.7207 120.342 65.7886 120.207 65.9241C120.072 66.0426 119.987 66.2288 119.987 66.449C120.004 66.72 120.072 66.9062 120.19 67.0586C120.326 67.1941 120.495 67.2617 120.715 67.2617H122.271ZM129.087 63.8241C129.172 63.8241 129.256 63.8411 129.307 63.892C129.375 63.9427 129.409 64.0105 129.409 64.0782C129.409 64.146 129.392 64.1799 129.375 64.2136L128.089 67.6005C128.072 67.6512 128.055 67.7021 128.038 67.736C128.022 67.7698 127.988 67.8037 127.937 67.8376C127.903 67.8715 127.852 67.8715 127.785 67.8715C127.734 67.8715 127.683 67.8715 127.649 67.8376C127.616 67.8206 127.582 67.7867 127.565 67.7528C127.548 67.7191 127.531 67.6852 127.514 67.6175C127.514 67.6005 127.176 66.72 126.499 64.9587L125.467 67.6512C125.451 67.736 125.417 67.7867 125.366 67.8206C125.332 67.8546 125.265 67.8715 125.18 67.8715C125.045 67.8715 124.96 67.8037 124.926 67.6343L123.607 64.2136C123.59 64.1629 123.59 64.129 123.59 64.1121C123.59 64.0275 123.624 63.9596 123.675 63.9089C123.725 63.8581 123.81 63.8241 123.894 63.8241C124.013 63.8241 124.097 63.892 124.148 64.0105L125.197 66.7368L126.212 64.0614C126.279 63.9089 126.364 63.8241 126.499 63.8241C126.584 63.8241 126.652 63.8411 126.685 63.875C126.719 63.892 126.753 63.9596 126.787 64.0614L127.802 66.7368L128.833 64.0275C128.884 63.892 128.969 63.8241 129.087 63.8241ZM131.776 63.7735C132.216 63.7735 132.588 63.892 132.893 64.0951C133.197 64.3154 133.333 64.637 133.333 65.0605V67.5497C133.333 67.6343 133.316 67.7021 133.265 67.7528C133.197 67.8037 133.13 67.8376 133.062 67.8376H131.201C130.829 67.8376 130.525 67.7021 130.288 67.4481C130.051 67.1941 129.933 66.8555 129.933 66.449C129.933 66.0934 130.051 65.7716 130.305 65.5346C130.559 65.2805 130.846 65.1451 131.201 65.1451H132.774V65.0435C132.774 64.8402 132.673 64.671 132.487 64.5524C132.301 64.417 132.081 64.3491 131.844 64.3491C131.506 64.3491 131.235 64.417 130.981 64.5524C130.914 64.5862 130.863 64.6031 130.812 64.6031C130.728 64.6031 130.66 64.5694 130.593 64.4846C130.559 64.4339 130.542 64.383 130.542 64.3322C130.542 64.2136 130.593 64.129 130.694 64.0614C130.998 63.875 131.354 63.7735 131.776 63.7735ZM132.774 67.2617V65.7207H131.218C131.032 65.7207 130.863 65.7886 130.711 65.9241C130.576 66.0426 130.508 66.2288 130.508 66.449C130.508 66.72 130.576 66.9062 130.711 67.0586C130.829 67.1941 131.015 67.2617 131.218 67.2617H132.774ZM136.039 65.8055L137.544 67.3803C137.612 67.4651 137.629 67.5327 137.629 67.5666C137.629 67.6343 137.612 67.7191 137.544 67.7867C137.493 67.8376 137.426 67.8715 137.358 67.8715C137.291 67.8715 137.223 67.8376 137.155 67.7867L135.667 66.2457L135.345 66.6182V67.5836C135.345 67.7867 135.244 67.8715 135.058 67.8715C134.872 67.8715 134.77 67.7867 134.77 67.5836V62.2155C134.77 62.0293 134.872 61.9445 135.058 61.9445C135.244 61.9445 135.345 62.0293 135.345 62.2324V65.7547L136.969 63.9089C137.037 63.8581 137.104 63.8241 137.172 63.8241C137.24 63.8241 137.307 63.8581 137.375 63.9089C137.443 63.9766 137.476 64.0444 137.476 64.129C137.476 64.1799 137.443 64.2476 137.392 64.3154L136.039 65.8055ZM140.081 63.8241C140.622 63.8241 141.113 64.0105 141.502 64.4C141.891 64.7895 142.094 65.2636 142.111 65.8055C142.111 66.0256 141.976 66.1272 141.722 66.1272H138.661C138.728 66.449 138.88 66.7368 139.151 66.957C139.422 67.1941 139.726 67.3126 140.081 67.3126C140.555 67.3126 140.944 67.1941 141.232 66.957C141.299 66.8892 141.384 66.8555 141.451 66.8555C141.519 66.8555 141.587 66.8892 141.637 66.9401C141.705 66.9908 141.722 67.0417 141.722 67.1263C141.722 67.228 141.688 67.2957 141.621 67.3635C141.265 67.7021 140.758 67.8715 140.081 67.8715C139.523 67.8715 139.05 67.6852 138.661 67.2957C138.255 66.9062 138.052 66.4321 138.052 65.8562C138.052 65.2805 138.255 64.8064 138.644 64.417C139.033 64.0275 139.506 63.8241 140.081 63.8241ZM138.661 65.5685H141.502C141.434 65.2297 141.265 64.9587 140.995 64.7217C140.741 64.5016 140.42 64.383 140.081 64.383C139.743 64.383 139.439 64.5016 139.168 64.7217C138.897 64.9587 138.728 65.2297 138.661 65.5685ZM142.771 67.8037C142.703 67.736 142.669 67.6512 142.669 67.5497C142.669 67.4311 142.703 67.3465 142.771 67.2787C142.838 67.1941 142.94 67.1602 143.041 67.1602C143.143 67.1602 143.227 67.1941 143.312 67.2787C143.38 67.3465 143.43 67.4311 143.43 67.5497C143.43 67.6512 143.38 67.736 143.312 67.8037C143.227 67.8883 143.143 67.9222 143.041 67.9222C142.94 67.9222 142.838 67.8883 142.771 67.8037ZM149.993 67.8715C149.807 67.8715 149.705 67.8037 149.705 67.6343V65.3821C149.705 65.0605 149.621 64.8234 149.469 64.654C149.283 64.4846 149.029 64.383 148.691 64.383C148.352 64.383 148.099 64.4846 147.93 64.671C147.845 64.7556 147.777 64.8571 147.726 64.9757C147.676 65.0942 147.642 65.1959 147.642 65.2636L147.625 65.3821V67.6343C147.625 67.7021 147.608 67.7698 147.557 67.8037C147.49 67.8546 147.422 67.8715 147.337 67.8715C147.253 67.8715 147.185 67.8546 147.134 67.8037C147.084 67.7698 147.067 67.7021 147.067 67.6343V65.3821C147.067 65.179 146.949 64.9419 146.729 64.671C146.559 64.4846 146.339 64.383 146.052 64.383C145.748 64.383 145.494 64.4846 145.308 64.671C145.088 64.8911 144.986 65.1281 144.986 65.3821V67.6005C144.986 67.6682 144.953 67.736 144.902 67.7867C144.851 67.8546 144.784 67.8715 144.699 67.8715C144.614 67.8715 144.547 67.8546 144.496 67.7867C144.445 67.736 144.411 67.6682 144.411 67.6005V64.0951C144.411 64.0105 144.445 63.9427 144.496 63.892C144.547 63.8411 144.614 63.8241 144.699 63.8241C144.784 63.8241 144.851 63.8411 144.902 63.892C144.953 63.9427 144.986 64.0105 144.986 64.0951V64.1967C145.274 63.9427 145.629 63.8241 146.052 63.8241C146.492 63.8241 146.864 63.9766 147.134 64.2815C147.202 64.3491 147.253 64.4339 147.321 64.5185C147.422 64.383 147.49 64.3154 147.524 64.2815C147.811 63.9766 148.2 63.8241 148.691 63.8241C149.198 63.8241 149.604 63.9766 149.875 64.2815C150.145 64.5524 150.28 64.908 150.28 65.3821V67.6343C150.28 67.7021 150.247 67.7698 150.196 67.8037C150.145 67.8546 150.078 67.8715 149.993 67.8715ZM153.257 63.8241C153.816 63.8241 154.289 64.0105 154.678 64.4C155.068 64.7895 155.271 65.2636 155.286 65.8055C155.286 66.0256 155.152 66.1272 154.898 66.1272H151.837C151.904 66.449 152.073 66.7368 152.327 66.957C152.598 67.1941 152.902 67.3126 153.257 67.3126C153.731 67.3126 154.12 67.1941 154.408 66.957C154.493 66.8892 154.56 66.8555 154.628 66.8555C154.695 66.8555 154.762 66.8892 154.814 66.9401C154.881 66.9908 154.914 67.0417 154.914 67.1263C154.914 67.228 154.881 67.2957 154.814 67.3635C154.459 67.7021 153.934 67.8715 153.257 67.8715C152.716 67.8715 152.243 67.6852 151.837 67.2957C151.448 66.9062 151.245 66.4321 151.245 65.8562C151.245 65.2805 151.431 64.8064 151.82 64.417C152.209 64.0275 152.699 63.8241 153.257 63.8241ZM151.837 65.5685H154.678C154.611 65.2297 154.441 64.9587 154.188 64.7217C153.917 64.5016 153.613 64.383 153.257 64.383C152.919 64.383 152.632 64.5016 152.344 64.7217C152.073 64.9587 151.904 65.2297 151.837 65.5685ZM156.724 67.4651C156.234 67.0925 155.997 66.5506 155.997 65.8562C155.997 65.1281 156.234 64.5862 156.724 64.2136C157.045 63.9766 157.418 63.8581 157.808 63.8581H158.789V62.2494C158.789 62.1816 158.805 62.1139 158.84 62.0461C158.889 61.9784 158.958 61.9445 159.076 61.9445C159.177 61.9445 159.246 61.9784 159.295 62.0461C159.33 62.1139 159.346 62.1816 159.346 62.2494V67.5836C159.346 67.6682 159.33 67.7191 159.262 67.7698C159.21 67.8206 159.143 67.8376 159.059 67.8376H157.808C157.418 67.8376 157.063 67.7191 156.724 67.4651ZM158.789 64.417H157.808C157.757 64.417 157.705 64.4339 157.638 64.4339C157.571 64.4507 157.469 64.4846 157.333 64.5355C157.199 64.5862 157.081 64.654 156.978 64.7386C156.878 64.8402 156.776 64.9757 156.691 65.179C156.606 65.3652 156.555 65.5854 156.555 65.8394C156.555 66.1102 156.606 66.3305 156.691 66.5167C156.776 66.72 156.878 66.8555 156.978 66.9401C157.081 67.0417 157.199 67.1095 157.333 67.1602C157.469 67.2111 157.571 67.2448 157.638 67.2617C157.705 67.2617 157.757 67.2617 157.808 67.2617H158.789V64.417ZM160.902 62.9945C160.802 62.9945 160.733 62.9606 160.666 62.9099C160.615 62.842 160.581 62.7744 160.581 62.6726C160.581 62.588 160.615 62.5204 160.666 62.4525C160.733 62.3849 160.802 62.351 160.902 62.351C160.987 62.351 161.054 62.3849 161.123 62.4525C161.19 62.5204 161.208 62.588 161.208 62.6726C161.208 62.7744 161.19 62.842 161.123 62.9099C161.054 62.9606 160.987 62.9945 160.902 62.9945ZM161.174 64.0782V67.5836C161.174 67.6343 161.156 67.7021 161.123 67.7698C161.072 67.8376 161.005 67.8715 160.902 67.8715C160.784 67.8715 160.717 67.8376 160.666 67.7698C160.632 67.7021 160.599 67.6343 160.599 67.5836V64.0782C160.599 64.0105 160.632 63.9596 160.666 63.9089C160.717 63.8581 160.784 63.8241 160.902 63.8241C161.005 63.8241 161.072 63.8581 161.123 63.9089C161.156 63.9596 161.174 64.0105 161.174 64.0782ZM164.015 63.7735C164.472 63.7735 164.844 63.892 165.131 64.0951C165.435 64.3154 165.588 64.637 165.588 65.0605V67.5497C165.588 67.6343 165.553 67.7021 165.504 67.7528C165.435 67.8037 165.386 67.8376 165.301 67.8376H163.439C163.067 67.8376 162.78 67.7021 162.526 67.4481C162.289 67.1941 162.171 66.8555 162.171 66.449C162.171 66.0934 162.307 65.7716 162.543 65.5346C162.797 65.2805 163.101 65.1451 163.439 65.1451H165.013V65.0435C165.013 64.8402 164.929 64.671 164.726 64.5524C164.539 64.417 164.32 64.3491 164.082 64.3491C163.761 64.3491 163.473 64.417 163.221 64.5524C163.152 64.5862 163.101 64.6031 163.051 64.6031C162.967 64.6031 162.898 64.5694 162.848 64.4846C162.797 64.4339 162.78 64.383 162.78 64.3322C162.78 64.2136 162.831 64.129 162.949 64.0614C163.237 63.875 163.591 63.7735 164.015 63.7735ZM165.013 67.2617V65.7207H163.457C163.27 65.7207 163.101 65.7886 162.949 65.9241C162.813 66.0426 162.746 66.2288 162.746 66.449C162.746 66.72 162.813 66.9062 162.949 67.0586C163.085 67.1941 163.254 67.2617 163.457 67.2617H165.013Z" fill="#FF7433"/>
<defs>
<radialGradient id="paint0_radial" cx="0" cy="0" r="1" gradientUnits="userSpaceOnUse" gradientTransform="translate(41.86 49.4263) rotate(-6.89545) scale(19.3049 19.3266)">
<stop stop-color="#FFBF00"/>
<stop offset="0.658824" stop-color="#FF991A"/>
<stop offset="1" stop-color="#FF7433"/>
</radialGradient>
</defs>
</svg>
