<svg width="22" height="22" viewBox="0 0 22 22" fill="none" xmlns="http://www.w3.org/2000/svg">
<path d="M11.6012 15.0955C13.2838 15.0995 15.0226 15.0613 16.5314 15.8235C17.0831 16.1022 17.5812 16.48 18.0272 16.9098C18.0272 16.9098 18.3636 17.2762 18.3043 17.6565C18.2482 18.0132 17.9297 18.3105 17.569 18.3406C17.0807 18.3812 16.7102 17.8563 16.2454 17.5378C14.8918 16.6108 13.0994 16.7213 11.4533 16.7197C8.59653 16.718 5.73897 16.7188 2.88141 16.7188C1.6196 16.7115 0.47316 15.6277 0.447972 14.3138C0.42441 10.513 0.447972 6.7121 0.447972 2.91122C0.456097 1.64535 1.54403 0.502158 2.85378 0.477783C8.27885 0.443658 13.7039 0.47697 19.129 0.47697C20.3965 0.485095 21.5543 1.58441 21.5624 2.91122V20.7797C21.5592 20.848 21.5608 20.8658 21.5478 20.9333C21.4251 21.5703 20.3762 21.8262 20.0284 21.1518C19.9699 21.0373 19.9447 20.9105 19.9382 20.7797C19.9382 14.8208 19.9756 8.86197 19.9382 2.90391C19.9301 2.48384 19.5604 2.10928 19.1363 2.10197C13.7153 2.06784 8.2951 2.06784 2.8741 2.10197C2.45403 2.10928 2.08028 2.47897 2.07216 2.90391C2.0486 6.69991 2.0486 10.4967 2.07216 14.2935C2.08028 14.712 2.43778 15.0865 2.87328 15.0947C5.78285 15.1133 8.6916 15.0914 11.6012 15.0955ZM7.75641 8.59791C8.20491 8.59791 8.56891 8.96191 8.56891 9.41041C8.56891 9.85891 8.20491 10.2221 7.75641 10.2221C7.30872 10.2221 6.94472 9.85891 6.94472 9.41041C6.94472 8.96191 7.30872 8.59791 7.75641 8.59791ZM11.0048 8.59791C11.4533 8.59791 11.8173 8.96191 11.8173 9.41041C11.8173 9.85891 11.4533 10.2221 11.0048 10.2221C10.5571 10.2221 10.1931 9.85891 10.1931 9.41041C10.1931 8.96191 10.5571 8.59791 11.0048 8.59791ZM14.2532 8.59791C14.7017 8.59791 15.0657 8.96191 15.0657 9.41041C15.0657 9.85891 14.7017 10.2221 14.2532 10.2221C13.8055 10.2221 13.4415 9.85891 13.4415 9.41041C13.4415 8.96191 13.8055 8.59791 14.2532 8.59791Z"/>
</svg>
