<svg width="16" height="16" viewBox="0 0 16 16" fill="none" xmlns="http://www.w3.org/2000/svg">
<path d="M12.5 7H11.5C10.837 7 10.2011 6.73661 9.73223 6.26777C9.26339 5.79893 9 5.16304 9 4.5V3.5C9 2.83696 9.26339 2.20107 9.73223 1.73223C10.2011 1.26339 10.837 1 11.5 1H12.5C13.163 1 13.7989 1.26339 14.2678 1.73223C14.7366 2.20107 15 2.83696 15 3.5V4.5C15 4.8283 14.9353 5.15339 14.8097 5.45671C14.6841 5.76002 14.4999 6.03562 14.2678 6.26777C14.0356 6.49991 13.76 6.68406 13.4567 6.8097C13.1534 6.93534 12.8283 7 12.5 7ZM11.5 2C11.1022 2 10.7206 2.15804 10.4393 2.43934C10.158 2.72064 10 3.10218 10 3.5V4.5C10 4.89782 10.158 5.27936 10.4393 5.56066C10.7206 5.84196 11.1022 6 11.5 6H12.5C12.8978 6 13.2794 5.84196 13.5607 5.56066C13.842 5.27936 14 4.89782 14 4.5V3.5C14 3.10218 13.842 2.72064 13.5607 2.43934C13.2794 2.15804 12.8978 2 12.5 2H11.5Z" fill="#FF7534"/>
<path d="M4.5 1H3.5C2.83696 1 2.20107 1.26339 1.73223 1.73223C1.26339 2.20107 1 2.83696 1 3.5V4.5C1 5.16304 1.26339 5.79893 1.73223 6.26777C2.20107 6.73661 2.83696 7 3.5 7H4.5C4.8283 7 5.15339 6.93534 5.45671 6.8097C5.76002 6.68406 6.03562 6.49991 6.26777 6.26777C6.49991 6.03562 6.68406 5.76002 6.8097 5.45671C6.93534 5.15339 7 4.8283 7 4.5V3.5C7 3.1717 6.93534 2.84661 6.8097 2.54329C6.68406 2.23998 6.49991 1.96438 6.26777 1.73223C6.03562 1.50009 5.76002 1.31594 5.45671 1.1903C5.15339 1.06466 4.8283 1 4.5 1ZM6 4.5C6 4.89782 5.84196 5.27936 5.56066 5.56066C5.27936 5.84196 4.89782 6 4.5 6H3.5C3.10218 6 2.72064 5.84196 2.43934 5.56066C2.15804 5.27936 2 4.89782 2 4.5V3.5C2 3.10218 2.15804 2.72064 2.43934 2.43934C2.72064 2.15804 3.10218 2 3.5 2H4.5C4.89782 2 5.27936 2.15804 5.56066 2.43934C5.84196 2.72064 6 3.10218 6 3.5V4.5ZM12.5 9H11.5C10.837 9 10.2011 9.26339 9.73223 9.73223C9.26339 10.2011 9 10.837 9 11.5V12.5C9 13.163 9.26339 13.7989 9.73223 14.2678C10.2011 14.7366 10.837 15 11.5 15H12.5C13.163 15 13.7989 14.7366 14.2678 14.2678C14.7366 13.7989 15 13.163 15 12.5V11.5C15 10.837 14.7366 10.2011 14.2678 9.73223C13.7989 9.26339 13.163 9 12.5 9ZM14 12.5C14 12.8978 13.842 13.2794 13.5607 13.5607C13.2794 13.842 12.8978 14 12.5 14H11.5C11.1022 14 10.7206 13.842 10.4393 13.5607C10.158 13.2794 10 12.8978 10 12.5V11.5C10 11.1022 10.158 10.7206 10.4393 10.4393C10.7206 10.158 11.1022 10 11.5 10H12.5C12.8978 10 13.2794 10.158 13.5607 10.4393C13.842 10.7206 14 11.1022 14 11.5V12.5ZM4.5 9H3.5C2.83696 9 2.20107 9.26339 1.73223 9.73223C1.26339 10.2011 1 10.837 1 11.5V12.5C1 13.163 1.26339 13.7989 1.73223 14.2678C2.20107 14.7366 2.83696 15 3.5 15H4.5C4.8283 15 5.15339 14.9353 5.45671 14.8097C5.76002 14.6841 6.03562 14.4999 6.26777 14.2678C6.49991 14.0356 6.68406 13.76 6.8097 13.4567C6.93534 13.1534 7 12.8283 7 12.5V11.5C7 11.1717 6.93534 10.8466 6.8097 10.5433C6.68406 10.24 6.49991 9.96438 6.26777 9.73223C6.03562 9.50009 5.76002 9.31594 5.45671 9.1903C5.15339 9.06466 4.8283 9 4.5 9ZM6 12.5C6 12.8978 5.84196 13.2794 5.56066 13.5607C5.27936 13.842 4.89782 14 4.5 14H3.5C3.10218 14 2.72064 13.842 2.43934 13.5607C2.15804 13.2794 2 12.8978 2 12.5V11.5C2 11.1022 2.15804 10.7206 2.43934 10.4393C2.72064 10.158 3.10218 10 3.5 10H4.5C4.89782 10 5.27936 10.158 5.56066 10.4393C5.84196 10.7206 6 11.1022 6 11.5V12.5Z" fill="white"/>
</svg>
