<svg width="14" height="14" viewBox="0 0 14 14" xmlns="http://www.w3.org/2000/svg">
<path d="M11.5 6H10.5C9.83696 6 9.20107 5.73661 8.73223 5.26777C8.26339 4.79893 8 4.16304 8 3.5V2.5C8 1.83696 8.26339 1.20107 8.73223 0.732233C9.20107 0.263392 9.83696 0 10.5 0H11.5C12.163 0 12.7989 0.263392 13.2678 0.732233C13.7366 1.20107 14 1.83696 14 2.5V3.5C14 3.8283 13.9353 4.15339 13.8097 4.45671C13.6841 4.76002 13.4999 5.03562 13.2678 5.26777C13.0356 5.49991 12.76 5.68406 12.4567 5.8097C12.1534 5.93534 11.8283 6 11.5 6ZM10.5 1C10.1022 1 9.72064 1.15804 9.43934 1.43934C9.15804 1.72064 9 2.10218 9 2.5V3.5C9 3.89782 9.15804 4.27936 9.43934 4.56066C9.72064 4.84196 10.1022 5 10.5 5H11.5C11.8978 5 12.2794 4.84196 12.5607 4.56066C12.842 4.27936 13 3.89782 13 3.5V2.5C13 2.10218 12.842 1.72064 12.5607 1.43934C12.2794 1.15804 11.8978 1 11.5 1H10.5Z" fill="#FF7534"/>
<path d="M3.5 0H2.5C1.83696 0 1.20107 0.263392 0.732233 0.732233C0.263392 1.20107 0 1.83696 0 2.5V3.5C0 4.16304 0.263392 4.79893 0.732233 5.26777C1.20107 5.73661 1.83696 6 2.5 6H3.5C3.8283 6 4.15339 5.93534 4.45671 5.8097C4.76002 5.68406 5.03562 5.49991 5.26777 5.26777C5.49991 5.03562 5.68406 4.76002 5.8097 4.45671C5.93534 4.15339 6 3.8283 6 3.5V2.5C6 2.1717 5.93534 1.84661 5.8097 1.54329C5.68406 1.23998 5.49991 0.964379 5.26777 0.732233C5.03562 0.500087 4.76002 0.315938 4.45671 0.190301C4.15339 0.0646644 3.8283 0 3.5 0ZM5 3.5C5 3.89782 4.84196 4.27936 4.56066 4.56066C4.27936 4.84196 3.89782 5 3.5 5H2.5C2.10218 5 1.72064 4.84196 1.43934 4.56066C1.15804 4.27936 1 3.89782 1 3.5V2.5C1 2.10218 1.15804 1.72064 1.43934 1.43934C1.72064 1.15804 2.10218 1 2.5 1H3.5C3.89782 1 4.27936 1.15804 4.56066 1.43934C4.84196 1.72064 5 2.10218 5 2.5V3.5ZM11.5 8H10.5C9.83696 8 9.20107 8.26339 8.73223 8.73223C8.26339 9.20107 8 9.83696 8 10.5V11.5C8 12.163 8.26339 12.7989 8.73223 13.2678C9.20107 13.7366 9.83696 14 10.5 14H11.5C12.163 14 12.7989 13.7366 13.2678 13.2678C13.7366 12.7989 14 12.163 14 11.5V10.5C14 9.83696 13.7366 9.20107 13.2678 8.73223C12.7989 8.26339 12.163 8 11.5 8ZM13 11.5C13 11.8978 12.842 12.2794 12.5607 12.5607C12.2794 12.842 11.8978 13 11.5 13H10.5C10.1022 13 9.72064 12.842 9.43934 12.5607C9.15804 12.2794 9 11.8978 9 11.5V10.5C9 10.1022 9.15804 9.72064 9.43934 9.43934C9.72064 9.15804 10.1022 9 10.5 9H11.5C11.8978 9 12.2794 9.15804 12.5607 9.43934C12.842 9.72064 13 10.1022 13 10.5V11.5ZM3.5 8H2.5C1.83696 8 1.20107 8.26339 0.732233 8.73223C0.263392 9.20107 0 9.83696 0 10.5V11.5C0 12.163 0.263392 12.7989 0.732233 13.2678C1.20107 13.7366 1.83696 14 2.5 14H3.5C3.8283 14 4.15339 13.9353 4.45671 13.8097C4.76002 13.6841 5.03562 13.4999 5.26777 13.2678C5.49991 13.0356 5.68406 12.76 5.8097 12.4567C5.93534 12.1534 6 11.8283 6 11.5V10.5C6 10.1717 5.93534 9.84661 5.8097 9.54329C5.68406 9.23998 5.49991 8.96438 5.26777 8.73223C5.03562 8.50009 4.76002 8.31594 4.45671 8.1903C4.15339 8.06466 3.8283 8 3.5 8ZM5 11.5C5 11.8978 4.84196 12.2794 4.56066 12.5607C4.27936 12.842 3.89782 13 3.5 13H2.5C2.10218 13 1.72064 12.842 1.43934 12.5607C1.15804 12.2794 1 11.8978 1 11.5V10.5C1 10.1022 1.15804 9.72064 1.43934 9.43934C1.72064 9.15804 2.10218 9 2.5 9H3.5C3.89782 9 4.27936 9.15804 4.56066 9.43934C4.84196 9.72064 5 10.1022 5 10.5V11.5Z" fill="url(#paint0_linear)"/>
<defs>
<linearGradient id="paint0_linear" x1="7" y1="0" x2="7" y2="14" gradientUnits="userSpaceOnUse">
<stop stop-color="#343F45"/>
<stop offset="0.252222" stop-color="#3D4A51"/>
<stop offset="0.427083" stop-color="#37454B"/>
<stop offset="0.741111" stop-color="#2E3C43"/>
<stop offset="1" stop-color="#1F2B31"/>
</linearGradient>
</defs>
</svg>
