<svg viewBox="0 0 60 60" xmlns="http://www.w3.org/2000/svg"><path d="m44 13.4 2.266 1.558A4 4 0 0 1 48 18.25V55a4 4 0 0 1-4 4H20a4 4 0 0 1-4-4v-1Z" fill="#eb6928" class="fill-2d629b"></path><path d="M40 54H16a4 4 0 0 1-4-4V13.25a4 4 0 0 1 1.734-3.3l12-8.25a4 4 0 0 1 4.532 0l12 8.25A4 4 0 0 1 44 13.25V50a4 4 0 0 1-4 4Z" fill="#ff7534" class="fill-3778c6"></path><circle cx="28" cy="8" fill="#eb6928" r="2" class="fill-2d629b"></circle><path d="M22.707 15.293a1 1 0 0 0-1.414 0l-4 4a1 1 0 0 0 0 1.414l4 4a1 1 0 0 0 1.414-1.414L19.414 20l3.293-3.293a1 1 0 0 0 0-1.414ZM38.707 19.293l-4-4a1 1 0 0 0-1.414 1.414L36.586 20l-3.293 3.293a1 1 0 1 0 1.414 1.414l4-4a1 1 0 0 0 0-1.414ZM30.447 15.105a1 1 0 0 0-1.342.448l-4 8a1 1 0 0 0 1.79.894l4-8a1 1 0 0 0-.448-1.342Z" fill="#ffffff" class="fill-ffffff"></path><path d="M25 48a3 3 0 0 1-3-3v-2a3 3 0 0 1 6 0v2a3 3 0 0 1-3 3Zm0-6a1 1 0 0 0-1 1v2a1 1 0 0 0 2 0v-2a1 1 0 0 0-1-1ZM30 37a3 3 0 0 1-3-3v-2a3 3 0 0 1 6 0v2a3 3 0 0 1-3 3Zm0-6a1 1 0 0 0-1 1v2a1 1 0 0 0 2 0v-2a1 1 0 0 0-1-1ZM19 37a1 1 0 0 1-1-1v-4a1 1 0 0 1-.707-1.707l1-1A1 1 0 0 1 20 30v6a1 1 0 0 1-1 1ZM19 48a1 1 0 0 1-1-1v-4a1 1 0 0 1-.707-1.707l1-1A1 1 0 0 1 20 41v6a1 1 0 0 1-1 1ZM24 37a1 1 0 0 1-1-1v-4a1 1 0 0 1-.707-1.707l1-1A1 1 0 0 1 25 30v6a1 1 0 0 1-1 1ZM32 48a1 1 0 0 1-1-1v-4a1 1 0 0 1-.707-1.707l1-1A1 1 0 0 1 33 41v6a1 1 0 0 1-1 1ZM37 48a1 1 0 0 1-1-1v-4a1 1 0 0 1-.707-1.707l1-1A1 1 0 0 1 38 41v6a1 1 0 0 1-1 1ZM37 37a1 1 0 0 1-1-1v-4a1 1 0 0 1-.707-1.707l1-1A1 1 0 0 1 38 30v6a1 1 0 0 1-1 1Z" fill="#e1efff" class="fill-e1efff"></path></svg>