<svg width="20" height="20" viewBox="0 0 20 20" fill="none" xmlns="http://www.w3.org/2000/svg">
<path fill-rule="evenodd" clip-rule="evenodd" d="M5.66331 2.7L6.33539 0.683772C6.4715 0.27543 6.85364 0 7.28407 0H12.6841C13.1145 0 13.4966 0.27543 13.6328 0.683772L14.3048 2.7H18.984C19.5363 2.7 19.984 3.14772 19.984 3.7C19.984 4.25229 19.5363 4.7 18.984 4.7H18.127L17.3931 17.1762C17.2998 18.7619 15.9867 20 14.3983 20H5.56988C3.98145 20 2.66833 18.7619 2.57506 17.1762L1.84116 4.7H1C0.447715 4.7 0 4.25229 0 3.7C0 3.14772 0.447715 2.7 1 2.7H5.66331ZM7.7715 2.7H12.1966L11.9633 2H8.00483L7.7715 2.7ZM16.1235 4.7H3.84462L4.57161 17.0587C4.6027 17.5873 5.0404 18 5.56988 18H14.3983C14.9277 18 15.3654 17.5873 15.3965 17.0587L16.1235 4.7ZM11.686 7.23762C11.7205 6.68641 12.1952 6.2675 12.7464 6.30195C13.2977 6.3364 13.7166 6.81117 13.6821 7.36238L13.2321 14.5624C13.1977 15.1136 12.7229 15.5325 12.1717 15.4981C11.6205 15.4636 11.2016 14.9888 11.236 14.4376L11.686 7.23762ZM8.73212 14.4376C8.76657 14.9888 8.34766 15.4636 7.79645 15.4981C7.24524 15.5325 6.77047 15.1136 6.73602 14.5624L6.28602 7.36238C6.25157 6.81117 6.67048 6.3364 7.22169 6.30195C7.7729 6.2675 8.24767 6.68641 8.28212 7.23762L8.73212 14.4376Z" fill="#92929D"/>
</svg>
