<svg width="14" height="14" viewBox="0 0 14 14" xmlns="http://www.w3.org/2000/svg" fill="url(#paint0_linear)">
<path d="M6.7697 0C3.037 0 0 3.03679 0 6.76949C0 10.5022 3.037 13.539 6.7697 13.539C10.5024 13.539 13.5394 10.5022 13.5394 6.76949C13.5394 3.03679 10.5024 0 6.7697 0ZM9.84441 3.90204L7.63369 7.58166C7.62105 7.60272 7.60336 7.62041 7.58208 7.63305L3.90225 9.84377C3.87824 9.85852 3.85128 9.86525 3.82453 9.86525C3.78557 9.86525 3.74681 9.85051 3.71774 9.82102C3.66867 9.77216 3.6594 9.69591 3.6952 9.63652L5.90719 5.95816C5.91983 5.9371 5.93752 5.91941 5.9588 5.90677L9.63736 3.69479C9.69634 3.65856 9.77259 3.66783 9.82187 3.71753C9.87094 3.7664 9.88021 3.84264 9.84441 3.90204ZM6.61594 1.29198C6.61995 1.37538 6.55592 1.44615 6.47251 1.45037C6.25156 1.46132 6.02366 1.48702 5.79556 1.52746C5.7865 1.52914 5.77786 1.52956 5.76902 1.52956C5.6972 1.52956 5.63338 1.47817 5.62053 1.40487C5.606 1.32273 5.66097 1.24437 5.7429 1.23005C5.98365 1.18751 6.22418 1.16013 6.45776 1.14875C6.54138 1.14875 6.61173 1.20899 6.61594 1.29198ZM2.89925 2.63998C3.40181 2.20735 4.20176 1.63445 5.15905 1.36443C5.24077 1.34295 5.32313 1.38886 5.34545 1.4689C5.36799 1.54894 5.32144 1.63235 5.24119 1.65509C4.33698 1.90995 3.57578 2.45589 3.0964 2.86914C3.06776 2.89357 3.03279 2.90536 2.99783 2.90536C2.95549 2.90536 2.91337 2.88767 2.88346 2.85313C2.82912 2.78994 2.83607 2.69474 2.89925 2.63998Z" />
<defs>
<linearGradient id="paint0_linear" x1="6.7697" y1="0" x2="6.7697" y2="13.539" gradientUnits="userSpaceOnUse">
<stop stop-color="#343F45"/>
<stop offset="0.252222" stop-color="#3D4A51"/>
<stop offset="0.427083" stop-color="#37454B"/>
<stop offset="0.741111" stop-color="#2E3C43"/>
<stop offset="1" stop-color="#1F2B31"/>
</linearGradient>
</defs>
</svg>
