<svg width="24" height="25" viewBox="0 0 24 25" fill="none" xmlns="http://www.w3.org/2000/svg">
<path fill-rule="evenodd" clip-rule="evenodd" d="M12 5.03725L12.2215 4.8095C14.6871 2.27444 18.6965 2.27444 21.1621 4.8095C23.6126 7.32902 23.6126 11.4028 21.1621 13.9223L13.4337 21.8684C12.6636 22.6602 11.3974 22.6778 10.6056 21.9076C10.5857 21.8882 10.5857 21.8882 10.5663 21.8684L2.83787 13.9223C0.387375 11.4028 0.387375 7.32902 2.83787 4.8095C5.3035 2.27444 9.31287 2.27444 11.7785 4.8095L12 5.03725ZM19.7284 12.5279C21.4239 10.7847 21.4239 7.94721 19.7284 6.204C18.0481 4.47635 15.3355 4.47635 13.6552 6.204L12.7169 7.1688C12.3242 7.5725 11.6758 7.5725 11.2831 7.1688L10.3448 6.204C8.66445 4.47635 5.95192 4.47635 4.27159 6.204C2.57614 7.94721 2.57614 10.7847 4.27159 12.5279L12 20.474L19.7284 12.5279Z" fill="white"/>
</svg>
