<svg width="16" height="16" viewBox="0 0 16 16" fill="none" xmlns="http://www.w3.org/2000/svg">
<path fill-rule="evenodd" clip-rule="evenodd" d="M12.6666 10.0002V4.00016C12.6666 3.26378 12.0696 2.66683 11.3332 2.66683H4.66657C3.93019 2.66683 3.33323 3.26378 3.33323 4.00016V10.0002H6.0209C6.39319 10.0002 6.69334 10.3051 6.68748 10.6773L6.67714 11.3339L9.33994 11.3357L9.3476 10.6593C9.35173 10.2941 9.64898 10.0002 10.0142 10.0002H12.6666ZM13.9999 10.0002C14.4206 10.0002 14.7361 10.385 14.6536 10.7976L14.3085 12.5231C14.0592 13.7696 12.9648 14.6668 11.6936 14.6668H4.30618C3.03503 14.6668 1.94059 13.7696 1.69129 12.5231L1.34618 10.7976C1.26367 10.385 1.5792 10.0002 1.9999 10.0002V4.00016C1.9999 2.5274 3.19381 1.3335 4.66657 1.3335H11.3332C12.806 1.3335 13.9999 2.5274 13.9999 4.00016V10.0002ZM2.8131 11.3335L2.99873 12.2617C3.12338 12.8849 3.6706 13.3335 4.30618 13.3335H11.6936C12.3292 13.3335 12.8764 12.8849 13.0011 12.2617L13.1867 11.3335H10.6734L10.6657 12.0104C10.6616 12.3757 10.3641 12.6697 9.99866 12.6695L5.99946 12.6668C5.62734 12.6666 5.32746 12.3617 5.33332 11.9897L5.34365 11.3335H2.8131Z" fill="#92929D"/>
</svg>
