<svg width="969" height="560" viewBox="0 0 969 560" fill="none" xmlns="http://www.w3.org/2000/svg">
<path d="M207.334 192.91C211.265 196.937 211.265 203.456 207.334 207.386C203.308 211.413 196.789 211.413 192.763 207.386L82.0366 109.219C74.6549 101.741 74.6549 89.6619 82.0366 82.1843C89.5142 74.7067 101.593 74.7067 109.071 82.1843L207.334 192.91ZM290.163 167.122C290.163 172.778 285.562 177.38 279.905 177.38C274.249 177.38 269.648 172.778 269.648 167.122L260.828 19.3916C260.828 8.84626 269.36 0.218262 279.905 0.218262C290.451 0.218262 298.983 8.84626 298.983 19.3916L290.163 167.122ZM197.844 236.913C202.062 238.735 204.171 243.624 202.349 247.938C200.624 252.156 195.734 254.169 191.42 252.443L77.0516 212.946C69.0946 209.591 65.3558 200.484 68.6153 192.527C71.9706 184.57 81.078 180.735 89.0349 184.091L197.844 236.913ZM252.296 191.568C254.117 195.786 252.104 200.675 247.79 202.497C243.476 204.223 238.587 202.209 236.861 197.991L183.943 89.1825C180.683 81.2256 184.422 72.0224 192.379 68.7629C200.336 65.5035 209.443 69.2423 212.799 77.1992L252.296 191.568ZM252.296 368.538C254.117 364.224 252.104 359.335 247.79 357.513C243.476 355.788 238.587 357.801 236.861 362.115L183.943 470.924C180.683 478.881 184.422 487.988 192.379 491.247C200.336 494.603 209.443 490.768 212.799 482.811L252.296 368.538ZM197.844 323.097C202.062 321.276 204.171 316.387 202.349 312.168C200.624 307.854 195.734 305.841 191.42 307.567L77.0516 347.16C69.0946 350.419 65.3558 359.527 68.6153 367.484C71.9706 375.536 81.078 379.275 89.0349 376.016L197.844 323.097ZM290.163 392.984C290.163 387.232 285.562 382.726 279.905 382.726C274.249 382.726 269.648 387.232 269.648 392.984L260.828 540.715C260.828 551.26 269.36 559.792 279.905 559.792C290.451 559.792 298.983 551.26 298.983 540.715L290.163 392.984ZM207.334 367.1C211.265 363.074 211.265 356.651 207.334 352.624C203.308 348.598 196.789 348.598 192.763 352.624L82.0366 450.792C74.6549 458.269 74.6549 470.348 82.0366 477.826C89.5142 485.304 101.593 485.304 109.071 477.826L207.334 367.1ZM166.974 269.795C172.631 269.795 177.232 274.397 177.232 280.053C177.232 285.709 172.631 290.311 166.974 290.311L19.244 299.131C8.69864 299.131 0.166504 290.598 0.166504 280.053C0.166504 269.508 8.69864 260.88 19.244 260.88L166.974 269.795Z" fill="url(#paint0_radial_101_281)"/>
<path d="M290.834 220.903C303.871 220.903 314.8 224.067 323.524 230.298C332.248 236.53 336.658 245.925 336.658 258.483V331.438C336.658 333.834 335.795 335.848 334.165 337.573C332.536 339.203 330.618 339.97 328.317 339.97H273.673C263.032 339.97 254.213 336.135 247.214 328.562C240.216 320.988 236.669 311.306 236.669 299.514C236.669 288.681 240.312 279.574 247.598 272.192C254.884 264.906 263.607 261.167 273.961 261.167H319.977V257.716C319.977 252.06 317.197 247.267 311.637 243.432C306.076 239.597 299.749 237.584 292.559 237.584C283.068 237.584 274.632 239.597 267.346 243.528C265.525 244.487 263.895 244.966 262.457 244.966C260.156 244.966 258.047 243.911 256.322 241.802C254.979 239.981 254.308 238.351 254.308 236.913C254.308 233.75 255.938 231.257 259.198 229.244C267.921 223.683 278.371 220.903 290.834 220.903ZM957.395 238.159L959.599 241.419C959.695 241.706 959.791 241.994 959.695 242.378C959.695 242.665 959.504 242.953 959.216 243.049C958.928 243.24 958.641 243.24 958.353 243.144C957.97 243.049 957.682 242.857 957.586 242.569L955.094 238.639H952.026V241.994C952.026 242.282 951.93 242.665 951.738 242.857C951.547 243.144 951.259 243.24 950.971 243.24C950.588 243.24 950.3 243.144 950.109 242.857C949.821 242.665 949.725 242.282 949.725 241.994V229.627C949.725 229.244 949.917 228.956 950.109 228.764C950.396 228.477 950.684 228.381 950.971 228.381H955.669C957.107 228.477 958.257 228.956 959.12 229.915C960.079 230.969 960.462 232.12 960.462 233.558C960.462 234.516 960.271 235.379 959.695 236.242C959.12 237.105 958.353 237.776 957.395 238.159ZM952.026 236.434H955.669C956.436 236.242 957.011 235.859 957.49 235.283C957.97 234.708 958.257 234.133 958.257 233.558C958.257 232.791 957.97 232.12 957.49 231.545C956.915 230.969 956.244 230.682 955.381 230.682H952.026V236.434ZM954.327 222.15C958.161 222.15 961.421 223.492 964.105 226.176C966.789 228.86 968.132 232.12 968.132 235.954C968.132 239.789 966.789 243.049 964.105 245.733C961.421 248.417 958.161 249.759 954.327 249.759C950.492 249.759 947.233 248.417 944.548 245.733C941.864 243.049 940.522 239.789 940.522 235.954C940.522 232.12 941.864 228.86 944.548 226.176C947.233 223.492 950.492 222.15 954.327 222.15ZM946.466 243.816C948.575 246.02 951.259 247.075 954.327 247.075C957.395 247.075 959.983 246.02 962.188 243.816C964.297 241.706 965.447 239.022 965.447 235.954C965.447 232.887 964.297 230.298 962.188 228.093C959.983 225.888 957.299 224.834 954.231 224.834C951.163 224.834 948.575 225.888 946.466 228.093C944.261 230.298 943.206 232.887 943.206 235.954C943.206 239.022 944.261 241.706 946.466 243.816ZM319.977 323.289V277.848H274.44C268.688 277.848 263.799 279.766 259.581 283.696C255.459 287.531 253.35 292.803 253.35 299.514C253.541 306.992 255.555 312.84 259.389 317.058C263.224 321.18 268.209 323.289 274.44 323.289H319.977ZM529.062 222.15C531.651 222.15 533.856 222.821 535.677 224.259C537.499 225.601 538.361 227.518 538.361 229.819C538.361 231.449 538.17 232.695 537.594 233.654L499.919 332.876C499.248 334.697 498.673 336.039 498.193 336.998C497.714 338.052 496.755 338.915 495.509 339.874C494.167 340.737 492.633 341.216 490.811 341.216C489.182 341.216 487.84 340.833 486.785 340.066C485.731 339.395 484.964 338.532 484.484 337.669C484.005 336.71 483.43 335.368 482.759 333.643C482.759 333.259 472.789 307.279 452.848 255.511L422.938 334.601C422.171 336.902 421.212 338.532 420.062 339.586C418.911 340.641 417.09 341.216 414.597 341.216C410.571 341.216 407.983 338.819 406.832 334.122L368.294 233.462C368.006 232.12 367.815 231.161 367.815 230.49C367.815 228.189 368.677 226.272 370.307 224.642C371.937 223.012 374.046 222.15 376.634 222.15C380.277 222.15 382.77 224.067 384.208 227.806L414.885 307.567L444.795 229.244C446.617 224.546 449.397 222.15 453.136 222.15C455.724 222.15 457.546 222.629 458.504 223.492C459.463 224.45 460.422 226.368 461.476 229.244L491.291 307.854L521.681 228.093C523.214 224.163 525.611 222.15 529.062 222.15ZM616.876 220.903C629.914 220.903 640.843 224.067 649.567 230.298C658.291 236.53 662.7 245.925 662.7 258.483V331.438C662.7 333.834 661.838 335.848 660.208 337.573C658.578 339.203 656.661 339.97 654.36 339.97H599.716C589.075 339.97 580.255 336.135 573.257 328.562C566.259 320.988 562.711 311.306 562.711 299.514C562.711 288.681 566.354 279.574 573.64 272.192C580.83 264.906 589.65 261.167 599.908 261.167H646.02V257.716C646.02 252.06 643.239 247.267 637.679 243.432C632.119 239.597 625.792 237.584 618.602 237.584C609.111 237.584 600.675 239.597 593.293 243.528C591.567 244.487 589.938 244.966 588.404 244.966C586.103 244.966 584.09 243.911 582.268 241.802C581.022 239.981 580.351 238.351 580.351 236.913C580.351 233.75 581.981 231.257 585.24 229.244C593.868 223.683 604.413 220.903 616.876 220.903ZM646.02 323.289V277.848H600.483C594.731 277.848 589.746 279.766 585.624 283.696C581.405 287.531 579.392 292.803 579.392 299.514C579.488 306.992 581.501 312.84 585.336 317.058C589.171 321.18 594.252 323.289 600.483 323.289H646.02ZM750.994 280.628L795.092 326.74C796.722 329.041 797.489 330.862 797.489 332.109C797.489 334.218 796.722 336.327 795.092 338.244C793.463 340.257 791.545 341.216 789.436 341.216C787.327 341.216 785.314 340.257 783.492 338.244L739.969 293.091L730.095 304.116V332.396C730.095 338.244 727.315 341.216 721.754 341.216C716.194 341.216 713.51 338.244 713.51 332.396V175.079C713.51 169.615 716.194 166.93 721.754 166.93C727.315 166.93 730.095 169.711 730.095 175.271V279.094L778.124 224.834C779.945 223.108 781.863 222.15 784.068 222.15C786.177 222.15 788.19 223.108 790.011 224.834C791.929 226.655 792.887 228.669 792.887 230.969C792.887 232.599 792.025 234.421 790.395 236.434L750.994 280.628ZM877.921 222.15C894.314 222.15 908.215 227.902 919.719 239.214C931.223 250.622 937.167 264.331 937.454 280.341C937.454 286.764 933.715 289.927 926.238 289.927H836.507C838.328 299.418 843.121 307.567 850.983 314.373C858.844 321.084 867.855 324.535 877.921 324.535C892.109 324.535 903.517 320.988 911.954 313.99C914.159 312.168 916.172 311.306 918.089 311.306C920.294 311.306 922.211 311.977 923.841 313.511C925.567 314.949 926.43 316.866 926.43 319.167C926.43 321.947 925.471 324.248 923.554 326.261C913.104 336.231 897.861 341.216 877.921 341.216C861.911 341.216 848.107 335.56 836.411 324.152C824.715 312.744 818.867 298.747 818.867 282.066C818.867 265.194 824.619 251.006 836.027 239.502C847.435 227.902 861.432 222.15 877.921 222.15ZM836.507 273.247H919.815C917.897 263.564 913.008 255.415 905.147 248.801C897.286 242.186 888.275 238.83 877.921 238.83C868.334 238.83 859.419 242.186 851.366 248.801C843.313 255.415 838.328 263.564 836.507 273.247Z" fill="#696969"/>
<defs>
<radialGradient id="paint0_radial_101_281" cx="0" cy="0" r="1" gradientUnits="userSpaceOnUse" gradientTransform="translate(236.188 280.031) rotate(-6.88748) scale(109.415 109.414)">
<stop stop-color="#FFBF00"/>
<stop offset="0.658824" stop-color="#FF991A"/>
<stop offset="1" stop-color="#FF7433"/>
</radialGradient>
</defs>
</svg>
