<svg width="1219" height="784" viewBox="0 0 1219 784" fill="none" xmlns="http://www.w3.org/2000/svg">
<g clip-path="url(#clip0)">
<path d="M333.334 312.91C337.265 316.937 337.265 323.456 333.334 327.386C329.308 331.413 322.789 331.413 318.763 327.386L208.037 229.219C200.655 221.741 200.655 209.662 208.037 202.184C215.514 194.707 227.593 194.707 235.071 202.184L333.334 312.91ZM416.163 287.122C416.163 292.778 411.562 297.38 405.905 297.38C400.249 297.38 395.648 292.778 395.648 287.122L386.828 139.392C386.828 128.846 395.36 120.218 405.905 120.218C416.451 120.218 424.983 128.846 424.983 139.392L416.163 287.122ZM323.844 356.913C328.062 358.735 330.171 363.624 328.349 367.938C326.624 372.156 321.734 374.169 317.42 372.443L203.052 332.946C195.095 329.591 191.356 320.484 194.615 312.527C197.971 304.57 207.078 300.735 215.035 304.091L323.844 356.913ZM378.296 311.568C380.117 315.786 378.104 320.675 373.79 322.497C369.476 324.223 364.587 322.209 362.861 317.991L309.943 209.183C306.683 201.226 310.422 192.022 318.379 188.763C326.336 185.503 335.443 189.242 338.799 197.199L378.296 311.568ZM378.296 488.538C380.117 484.224 378.104 479.335 373.79 477.513C369.476 475.788 364.587 477.801 362.861 482.115L309.943 590.924C306.683 598.881 310.422 607.988 318.379 611.247C326.336 614.603 335.443 610.768 338.799 602.811L378.296 488.538ZM323.844 443.097C328.062 441.276 330.171 436.387 328.349 432.168C326.624 427.854 321.734 425.841 317.42 427.567L203.052 467.16C195.095 470.419 191.356 479.527 194.615 487.484C197.971 495.536 207.078 499.275 215.035 496.016L323.844 443.097ZM416.163 512.984C416.163 507.232 411.562 502.726 405.905 502.726C400.249 502.726 395.648 507.232 395.648 512.984L386.828 660.715C386.828 671.26 395.36 679.792 405.905 679.792C416.451 679.792 424.983 671.26 424.983 660.715L416.163 512.984ZM333.334 487.1C337.265 483.074 337.265 476.651 333.334 472.624C329.308 468.598 322.789 468.598 318.763 472.624L208.037 570.792C200.655 578.269 200.655 590.348 208.037 597.826C215.514 605.304 227.593 605.304 235.071 597.826L333.334 487.1ZM292.974 389.795C298.631 389.795 303.232 394.397 303.232 400.053C303.232 405.709 298.631 410.311 292.974 410.311L145.244 419.131C134.699 419.131 126.167 410.598 126.167 400.053C126.167 389.508 134.699 380.88 145.244 380.88L292.974 389.795Z" fill="url(#paint0_radial)"/>
<path d="M416.834 340.903C429.871 340.903 440.8 344.067 449.524 350.298C458.248 356.53 462.658 365.925 462.658 378.483V451.438C462.658 453.834 461.795 455.848 460.165 457.573C458.536 459.203 456.618 459.97 454.317 459.97H399.673C389.032 459.97 380.213 456.135 373.214 448.562C366.216 440.988 362.669 431.306 362.669 419.514C362.669 408.681 366.312 399.574 373.598 392.192C380.884 384.906 389.607 381.167 399.961 381.167H445.977V377.716C445.977 372.06 443.197 367.267 437.637 363.432C432.076 359.597 425.749 357.584 418.559 357.584C409.068 357.584 400.632 359.597 393.346 363.528C391.525 364.487 389.895 364.966 388.457 364.966C386.156 364.966 384.047 363.911 382.322 361.802C380.979 359.981 380.308 358.351 380.308 356.913C380.308 353.75 381.938 351.257 385.198 349.244C393.921 343.683 404.371 340.903 416.834 340.903ZM1083.39 358.159L1085.6 361.419C1085.7 361.706 1085.79 361.994 1085.7 362.378C1085.7 362.665 1085.5 362.953 1085.22 363.049C1084.93 363.24 1084.64 363.24 1084.35 363.144C1083.97 363.049 1083.68 362.857 1083.59 362.569L1081.09 358.639H1078.03V361.994C1078.03 362.282 1077.93 362.665 1077.74 362.857C1077.55 363.144 1077.26 363.24 1076.97 363.24C1076.59 363.24 1076.3 363.144 1076.11 362.857C1075.82 362.665 1075.73 362.282 1075.73 361.994V349.627C1075.73 349.244 1075.92 348.956 1076.11 348.764C1076.4 348.477 1076.68 348.381 1076.97 348.381H1081.67C1083.11 348.477 1084.26 348.956 1085.12 349.915C1086.08 350.969 1086.46 352.12 1086.46 353.558C1086.46 354.516 1086.27 355.379 1085.7 356.242C1085.12 357.105 1084.35 357.776 1083.39 358.159ZM1078.03 356.434H1081.67C1082.44 356.242 1083.01 355.859 1083.49 355.283C1083.97 354.708 1084.26 354.133 1084.26 353.558C1084.26 352.791 1083.97 352.12 1083.49 351.545C1082.92 350.969 1082.24 350.682 1081.38 350.682H1078.03V356.434ZM1080.33 342.15C1084.16 342.15 1087.42 343.492 1090.11 346.176C1092.79 348.86 1094.13 352.12 1094.13 355.954C1094.13 359.789 1092.79 363.049 1090.11 365.733C1087.42 368.417 1084.16 369.759 1080.33 369.759C1076.49 369.759 1073.23 368.417 1070.55 365.733C1067.86 363.049 1066.52 359.789 1066.52 355.954C1066.52 352.12 1067.86 348.86 1070.55 346.176C1073.23 343.492 1076.49 342.15 1080.33 342.15ZM1072.47 363.816C1074.57 366.02 1077.26 367.075 1080.33 367.075C1083.39 367.075 1085.98 366.02 1088.19 363.816C1090.3 361.706 1091.45 359.022 1091.45 355.954C1091.45 352.887 1090.3 350.298 1088.19 348.093C1085.98 345.888 1083.3 344.834 1080.23 344.834C1077.16 344.834 1074.57 345.888 1072.47 348.093C1070.26 350.298 1069.21 352.887 1069.21 355.954C1069.21 359.022 1070.26 361.706 1072.47 363.816ZM445.977 443.289V397.848H400.44C394.688 397.848 389.799 399.766 385.581 403.696C381.459 407.531 379.35 412.803 379.35 419.514C379.541 426.992 381.555 432.84 385.389 437.058C389.224 441.18 394.209 443.289 400.44 443.289H445.977ZM655.062 342.15C657.651 342.15 659.856 342.821 661.677 344.259C663.499 345.601 664.361 347.518 664.361 349.819C664.361 351.449 664.17 352.695 663.594 353.654L625.919 452.876C625.248 454.697 624.673 456.039 624.193 456.998C623.714 458.052 622.755 458.915 621.509 459.874C620.167 460.737 618.633 461.216 616.811 461.216C615.182 461.216 613.84 460.833 612.785 460.066C611.731 459.395 610.964 458.532 610.484 457.669C610.005 456.71 609.43 455.368 608.759 453.643C608.759 453.259 598.789 427.279 578.848 375.511L548.938 454.601C548.171 456.902 547.212 458.532 546.062 459.586C544.911 460.641 543.09 461.216 540.597 461.216C536.571 461.216 533.983 458.819 532.832 454.122L494.294 353.462C494.006 352.12 493.815 351.161 493.815 350.49C493.815 348.189 494.677 346.272 496.307 344.642C497.937 343.012 500.046 342.15 502.634 342.15C506.277 342.15 508.77 344.067 510.208 347.806L540.885 427.567L570.795 349.244C572.617 344.546 575.397 342.15 579.136 342.15C581.724 342.15 583.546 342.629 584.504 343.492C585.463 344.45 586.422 346.368 587.476 349.244L617.291 427.854L647.681 348.093C649.214 344.163 651.611 342.15 655.062 342.15ZM742.876 340.903C755.914 340.903 766.843 344.067 775.567 350.298C784.291 356.53 788.7 365.925 788.7 378.483V451.438C788.7 453.834 787.838 455.848 786.208 457.573C784.578 459.203 782.661 459.97 780.36 459.97H725.716C715.075 459.97 706.255 456.135 699.257 448.562C692.259 440.988 688.711 431.306 688.711 419.514C688.711 408.681 692.354 399.574 699.64 392.192C706.83 384.906 715.65 381.167 725.908 381.167H772.02V377.716C772.02 372.06 769.239 367.267 763.679 363.432C758.119 359.597 751.792 357.584 744.602 357.584C735.111 357.584 726.675 359.597 719.293 363.528C717.567 364.487 715.938 364.966 714.404 364.966C712.103 364.966 710.09 363.911 708.268 361.802C707.022 359.981 706.351 358.351 706.351 356.913C706.351 353.75 707.981 351.257 711.24 349.244C719.868 343.683 730.413 340.903 742.876 340.903ZM772.02 443.289V397.848H726.483C720.731 397.848 715.746 399.766 711.624 403.696C707.405 407.531 705.392 412.803 705.392 419.514C705.488 426.992 707.501 432.84 711.336 437.058C715.171 441.18 720.252 443.289 726.483 443.289H772.02ZM876.994 400.628L921.092 446.74C922.722 449.041 923.489 450.862 923.489 452.109C923.489 454.218 922.722 456.327 921.092 458.244C919.463 460.257 917.545 461.216 915.436 461.216C913.327 461.216 911.314 460.257 909.492 458.244L865.969 413.091L856.095 424.116V452.396C856.095 458.244 853.315 461.216 847.754 461.216C842.194 461.216 839.51 458.244 839.51 452.396V295.079C839.51 289.615 842.194 286.93 847.754 286.93C853.315 286.93 856.095 289.711 856.095 295.271V399.094L904.124 344.834C905.945 343.108 907.863 342.15 910.068 342.15C912.177 342.15 914.19 343.108 916.011 344.834C917.929 346.655 918.887 348.669 918.887 350.969C918.887 352.599 918.025 354.421 916.395 356.434L876.994 400.628ZM1003.92 342.15C1020.31 342.15 1034.21 347.902 1045.72 359.214C1057.22 370.622 1063.17 384.331 1063.45 400.341C1063.45 406.764 1059.72 409.927 1052.24 409.927H962.507C964.328 419.418 969.121 427.567 976.983 434.373C984.844 441.084 993.855 444.535 1003.92 444.535C1018.11 444.535 1029.52 440.988 1037.95 433.99C1040.16 432.168 1042.17 431.306 1044.09 431.306C1046.29 431.306 1048.21 431.977 1049.84 433.511C1051.57 434.949 1052.43 436.866 1052.43 439.167C1052.43 441.947 1051.47 444.248 1049.55 446.261C1039.1 456.231 1023.86 461.216 1003.92 461.216C987.911 461.216 974.107 455.56 962.411 444.152C950.715 432.744 944.867 418.747 944.867 402.066C944.867 385.194 950.619 371.006 962.027 359.502C973.435 347.902 987.432 342.15 1003.92 342.15ZM962.507 393.247H1045.81C1043.9 383.564 1039.01 375.415 1031.15 368.801C1023.29 362.186 1014.27 358.83 1003.92 358.83C994.334 358.83 985.419 362.186 977.366 368.801C969.313 375.415 964.328 383.564 962.507 393.247Z" fill="white"/>
</g>
<defs>
<radialGradient id="paint0_radial" cx="0" cy="0" r="1" gradientUnits="userSpaceOnUse" gradientTransform="translate(362.188 400.031) rotate(-6.88748) scale(109.415 109.414)">
<stop stop-color="#FFBF00"/>
<stop offset="0.658824" stop-color="#FF991A"/>
<stop offset="1" stop-color="#FF7433"/>
</radialGradient>
<clipPath id="clip0">
<rect width="1219" height="784" fill="white"/>
</clipPath>
</defs>
</svg>
