<?xml version="1.0" ?><svg enable-background="new 0 0 32 32" viewBox="0 0 32 32" xmlns="http://www.w3.org/2000/svg"><g><path d="M15.74 32c-.64 0-1.242-.249-1.695-.702l-13.343-13.344c-.452-.452-.702-1.054-.702-1.694 0-.64.25-1.242.702-1.695l13.863-13.863c.51-.51 1.208-.761 1.933-.69l13.132-.012c.634 0 1.229.247 1.677.695s.693 1.044.692 1.677l-.006 13.186c.054.698-.197 1.379-.694 1.877l-13.863 13.863c-.453.453-1.055.702-1.696.702zm.57-29.997c-.163 0-.258.041-.331.113l-13.863 13.863c-.101.101-.116.219-.116.281 0 .061.015.179.116.28l13.343 13.344c.202.203.358.203.561 0l13.863-13.863c.084-.084.126-.201.114-.32l-.005-.101.006-13.23c0-.134-.067-.221-.107-.261-.04-.041-.127-.109-.261-.109l-13.23.006-.09-.003zM11 18c-.256 0-.512-.098-.707-.293-.391-.391-.391-1.023 0-1.414l7-7c.391-.391 1.023-.391 1.414 0s.391 1.023 0 1.414l-7 7c-.195.195-.451.293-.707.293zM15 22c-.256 0-.512-.098-.707-.293-.391-.391-.391-1.023 0-1.414l7-7c.391-.391 1.023-.391 1.414 0s.391 1.023 0 1.414l-7 7c-.195.195-.451.293-.707.293zM26 7c-.26 0-.521-.11-.71-.29-.181-.19-.29-.45-.29-.71 0-.26.109-.52.29-.71.38-.37 1.05-.37 1.42 0 .18.19.29.45.29.71 0 .26-.11.52-.29.71-.19.18-.45.29-.71.29z"/></g></svg>