<svg width="20" height="20" viewBox="0 0 20 20" fill="none" xmlns="http://www.w3.org/2000/svg">
<path d="M14.375 0.625H5.625C5.2106 0.625 4.81317 0.78962 4.52015 1.08265C4.22712 1.37567 4.0625 1.7731 4.0625 2.1875V17.8125C4.0625 18.2269 4.22712 18.6243 4.52015 18.9174C4.81317 19.2104 5.2106 19.375 5.625 19.375H14.375C14.7894 19.375 15.1868 19.2104 15.4799 18.9174C15.7729 18.6243 15.9375 18.2269 15.9375 17.8125V2.1875C15.9375 1.7731 15.7729 1.37567 15.4799 1.08265C15.1868 0.78962 14.7894 0.625 14.375 0.625ZM14.6875 17.8125C14.6875 17.8954 14.6546 17.9749 14.596 18.0335C14.5374 18.0921 14.4579 18.125 14.375 18.125H5.625C5.54212 18.125 5.46263 18.0921 5.40403 18.0335C5.34542 17.9749 5.3125 17.8954 5.3125 17.8125V15.625H14.6875V17.8125ZM14.6875 14.375H5.3125V2.1875C5.3125 2.10462 5.34542 2.02513 5.40403 1.96653C5.46263 1.90792 5.54212 1.875 5.625 1.875H14.375C14.4579 1.875 14.5374 1.90792 14.596 1.96653C14.6546 2.02513 14.6875 2.10462 14.6875 2.1875V14.375Z" />
<path d="M10 17.5C10.3452 17.5 10.625 17.2202 10.625 16.875C10.625 16.5298 10.3452 16.25 10 16.25C9.65482 16.25 9.375 16.5298 9.375 16.875C9.375 17.2202 9.65482 17.5 10 17.5Z" />
</svg>
