<svg width="12" height="12" viewBox="0 0 12 12" fill="none" xmlns="http://www.w3.org/2000/svg">
<path fill-rule="evenodd" clip-rule="evenodd" d="M9.58785 2.20833L8.26061 1.1463C8.00906 0.945017 7.96831 0.577925 8.1696 0.326378C8.37088 0.0748307 8.73797 0.0340831 8.98952 0.235367L11.6145 2.33584C11.7574 2.45014 11.8303 2.61484 11.8333 2.78061C11.8333 2.78428 11.8334 2.78797 11.8334 2.79167C11.8334 2.85989 11.8217 2.92537 11.8001 2.98622L11.8001 2.98627C11.7985 2.99076 11.7969 2.99523 11.7952 2.99967C11.7752 3.05366 11.7438 3.10943 11.7026 3.15978C11.6724 3.19678 11.6379 3.23002 11.5996 3.25867L8.98951 5.34714C8.73795 5.54842 8.37086 5.50766 8.16959 5.25611C7.96831 5.00456 8.00907 4.63747 8.26062 4.43619L9.58688 3.375L4.68754 3.375C2.83509 3.375 1.33337 4.87671 1.33337 6.72917C1.33337 8.58162 2.83509 10.0833 4.68754 10.0833L8.62504 10.0833C8.94721 10.0833 9.20837 10.3445 9.20837 10.6667C9.20837 10.9888 8.94721 11.25 8.62504 11.25L4.68754 11.25C2.19075 11.25 0.166706 9.22595 0.166706 6.72917C0.166707 4.23238 2.19075 2.20833 4.68754 2.20833L9.58785 2.20833Z" fill="white"/>
</svg>
