<svg width="16" height="16" viewBox="0 0 16 16" fill="none" xmlns="http://www.w3.org/2000/svg">
<path d="M12.5 13H3.5C2.83696 13 2.20107 12.7366 1.73223 12.2678C1.26339 11.7989 1 11.163 1 10.5V5.5C1 4.83696 1.26339 4.20107 1.73223 3.73223C2.20107 3.26339 2.83696 3 3.5 3H9.5C9.63261 3 9.75979 3.05268 9.85355 3.14645C9.94732 3.24021 10 3.36739 10 3.5C10 3.63261 9.94732 3.75979 9.85355 3.85355C9.75979 3.94732 9.63261 4 9.5 4H3.5C3.10218 4 2.72064 4.15804 2.43934 4.43934C2.15804 4.72064 2 5.10218 2 5.5V10.5C2 10.8978 2.15804 11.2794 2.43934 11.5607C2.72064 11.842 3.10218 12 3.5 12H12.5C12.8978 12 13.2794 11.842 13.5607 11.5607C13.842 11.2794 14 10.8978 14 10.5C14 10.3674 14.0527 10.2402 14.1464 10.1464C14.2402 10.0527 14.3674 10 14.5 10C14.6326 10 14.7598 10.0527 14.8536 10.1464C14.9473 10.2402 15 10.3674 15 10.5C15 11.163 14.7366 11.7989 14.2678 12.2678C13.7989 12.7366 13.163 13 12.5 13Z" fill="white"/>
<path d="M9.5 7H1.5C1.36739 7 1.24021 6.94732 1.14645 6.85355C1.05268 6.75979 1 6.63261 1 6.5C1 6.36739 1.05268 6.24021 1.14645 6.14645C1.24021 6.05268 1.36739 6 1.5 6H9.5C9.63261 6 9.75979 6.05268 9.85355 6.14645C9.94732 6.24021 10 6.36739 10 6.5C10 6.63261 9.94732 6.75979 9.85355 6.85355C9.75979 6.94732 9.63261 7 9.5 7Z" fill="white"/>
<path d="M3.5 5.5C3.77614 5.5 4 5.27614 4 5C4 4.72386 3.77614 4.5 3.5 4.5C3.22386 4.5 3 4.72386 3 5C3 5.27614 3.22386 5.5 3.5 5.5Z" fill="#FF7534"/>
<path d="M5.5 5.5C5.77614 5.5 6 5.27614 6 5C6 4.72386 5.77614 4.5 5.5 4.5C5.22386 4.5 5 4.72386 5 5C5 5.27614 5.22386 5.5 5.5 5.5Z" fill="#FF7534"/>
<path d="M7.5 5.5C7.77614 5.5 8 5.27614 8 5C8 4.72386 7.77614 4.5 7.5 4.5C7.22386 4.5 7 4.72386 7 5C7 5.27614 7.22386 5.5 7.5 5.5Z" fill="#FF7534"/>
<path d="M14.5 4H11.5C11.3674 4 11.2402 3.94732 11.1464 3.85355C11.0527 3.75979 11 3.63261 11 3.5C11 3.36739 11.0527 3.24021 11.1464 3.14645C11.2402 3.05268 11.3674 3 11.5 3H14.5C14.6326 3 14.7598 3.05268 14.8536 3.14645C14.9473 3.24021 15 3.36739 15 3.5C15 3.63261 14.9473 3.75979 14.8536 3.85355C14.7598 3.94732 14.6326 4 14.5 4Z" fill="white"/>
<path d="M7.5 10H4.5C4.36739 10 4.24021 9.94732 4.14645 9.85355C4.05268 9.75979 4 9.63261 4 9.5C4 9.36739 4.05268 9.24021 4.14645 9.14645C4.24021 9.05268 4.36739 9 4.5 9H7.5C7.63261 9 7.75979 9.05268 7.85355 9.14645C7.94732 9.24021 8 9.36739 8 9.5C8 9.63261 7.94732 9.75979 7.85355 9.85355C7.75979 9.94732 7.63261 10 7.5 10Z" fill="#FF7534"/>
<path d="M13 10C12.9342 10.0004 12.869 9.98777 12.8081 9.96289C12.7471 9.938 12.6917 9.90134 12.645 9.855L11.145 8.355C11.0987 8.30828 11.062 8.25287 11.0371 8.19195C11.0122 8.13103 10.9996 8.0658 11 8V1.5C11 1.36739 11.0527 1.24021 11.1465 1.14645C11.2402 1.05268 11.3674 1 11.5 1H14.5C14.6326 1 14.7598 1.05268 14.8536 1.14645C14.9473 1.24021 15 1.36739 15 1.5V3.5C15 3.63261 14.9473 3.75979 14.8536 3.85355C14.7598 3.94732 14.6326 4 14.5 4C14.3674 4 14.2402 3.94732 14.1465 3.85355C14.0527 3.75979 14 3.63261 14 3.5V2H12V7.795L13 8.795L14 7.795V5.5C14 5.36739 14.0527 5.24021 14.1465 5.14645C14.2402 5.05268 14.3674 5 14.5 5C14.6326 5 14.7598 5.05268 14.8536 5.14645C14.9473 5.24021 15 5.36739 15 5.5V8C15.0004 8.0658 14.9878 8.13103 14.9629 8.19195C14.938 8.25287 14.9013 8.30828 14.855 8.355L13.355 9.855C13.3083 9.90134 13.2529 9.938 13.192 9.96289C13.131 9.98777 13.0658 10.0004 13 10Z" fill="white"/>
</svg>
