<svg width="14" height="14" viewBox="0 0 14 14" fill="none" xmlns="http://www.w3.org/2000/svg">
<path fill-rule="evenodd" clip-rule="evenodd" d="M2.12191 2.12185C-0.262887 4.50665 -0.262887 8.37318 2.12191 10.758C4.50672 13.1428 8.37324 13.1428 10.758 10.758C13.1428 8.37318 13.1428 4.50665 10.758 2.12185C8.37324 -0.262949 4.50672 -0.262949 2.12191 2.12185ZM3.06472 3.06466C4.92883 1.20056 7.95113 1.20056 9.81524 3.06466C11.6793 4.92877 11.6793 7.95107 9.81524 9.81518C7.95113 11.6793 4.92883 11.6793 3.06472 9.81518C1.20062 7.95107 1.20062 4.92877 3.06472 3.06466Z" fill="#92929D"/>
<path d="M13.7295 12.5216L10.9766 9.76859C10.348 9.14005 9.40521 10.0829 10.0337 10.7114L12.7867 13.4644C13.4153 14.0929 14.3581 13.1501 13.7295 12.5216Z" fill="#92929D"/>
</svg>
