<svg width="20" height="20" viewBox="0 0 20 20" fill="none" xmlns="http://www.w3.org/2000/svg">
<path d="M18.5 8.1001C18.5 7.49253 18.0076 7 17.4001 7H2.59985C1.99242 7 1.5 7.49253 1.5 8.1001V16.8999C1.5 17.5075 1.99242 18 2.59985 18H17.4001C18.0076 18 18.5 17.5075 18.5 16.8999V8.1001Z" fill="#D0D0E0"/>
<path d="M18.5 2.1001C18.5 1.49253 18.0076 1 17.4001 1H2.59985C1.99242 1 1.5 1.49253 1.5 2.1001V4.8999C1.5 5.50747 1.99242 6 2.59985 6H17.4001C18.0076 6 18.5 5.50747 18.5 4.8999V2.1001Z" fill="#9898AB"/>
</svg>
