<svg width="16" height="16" viewBox="0 0 16 16" fill="none" xmlns="http://www.w3.org/2000/svg">
<path fill-rule="evenodd" clip-rule="evenodd" d="M10.5888 14.8407C10.1938 16.3783 7.87136 15.7712 8.26878 14.2352C9.2805 10.3187 5.70636 6.72618 1.80425 7.79157C0.276592 8.20853 -0.352236 5.87259 1.1744 5.45579C6.82644 3.91399 12.0766 9.09314 10.5888 14.8407Z"/>
<path fill-rule="evenodd" clip-rule="evenodd" d="M15.6016 14.706C15.3784 16.2818 13.0009 15.9391 13.2251 14.3655C14.1909 7.5818 8.3996 1.77133 1.63233 2.80633C0.0720206 3.0443 -0.291964 0.653596 1.27585 0.413674C9.63413 -0.865154 16.8062 6.32946 15.6016 14.706Z" />
<path fill-rule="evenodd" clip-rule="evenodd" d="M5.88057 13.6246C6.27979 12.1239 5.39456 10.5813 3.90385 10.179C2.41284 9.77699 0.880259 10.6678 0.480962 12.1686C0.0814312 13.6691 0.96604 15.2117 2.45682 15.6136C3.94862 16.016 5.4812 15.1251 5.88057 13.6246Z"/>
</svg>
