<svg width="20" height="20" viewBox="0 0 20 20" fill="none" xmlns="http://www.w3.org/2000/svg">
<path d="M16.25 0.625H3.75C3.3356 0.625 2.93817 0.78962 2.64515 1.08265C2.35212 1.37567 2.1875 1.7731 2.1875 2.1875V17.8125C2.1875 18.2269 2.35212 18.6243 2.64515 18.9174C2.93817 19.2104 3.3356 19.375 3.75 19.375H16.25C16.6644 19.375 17.0618 19.2104 17.3549 18.9174C17.6479 18.6243 17.8125 18.2269 17.8125 17.8125V2.1875C17.8125 1.7731 17.6479 1.37567 17.3549 1.08265C17.0618 0.78962 16.6644 0.625 16.25 0.625ZM16.5625 17.8125C16.5625 17.8954 16.5296 17.9749 16.471 18.0335C16.4124 18.0921 16.3329 18.125 16.25 18.125H3.75C3.66712 18.125 3.58763 18.0921 3.52903 18.0335C3.47042 17.9749 3.4375 17.8954 3.4375 17.8125V15.625H16.5625V17.8125ZM16.5625 14.375H3.4375V2.1875C3.4375 2.10462 3.47042 2.02513 3.52903 1.96653C3.58763 1.90792 3.66712 1.875 3.75 1.875H16.25C16.3329 1.875 16.4124 1.90792 16.471 1.96653C16.5296 2.02513 16.5625 2.10462 16.5625 2.1875V14.375Z" />
</svg>
