<svg width="20" height="20" viewBox="0 0 20 20" fill="none" xmlns="http://www.w3.org/2000/svg">
<path d="M18.5 8.09985C18.5 7.49242 18.0077 7 17.4004 7H2.59958C1.9923 7 1.5 7.49242 1.5 8.09985V16.9001C1.5 17.5076 1.9923 18 2.59958 18H17.4004C18.0077 18 18.5 17.5076 18.5 16.9001V8.09985Z" fill="#D0D0E0"/>
<path d="M18.5 2.1001C18.5 1.49253 18.0077 1 17.4004 1H11.5996C10.9923 1 10.5 1.49253 10.5 2.1001V4.8999C10.5 5.50747 10.9923 6 11.5996 6H17.4004C18.0077 6 18.5 5.50747 18.5 4.8999V2.1001Z" fill="#9898AB"/>
<path d="M9.5 2.1001C9.5 1.49253 9.00747 1 8.3999 1H2.6001C1.99253 1 1.5 1.49253 1.5 2.1001V4.8999C1.5 5.50747 1.99253 6 2.6001 6H8.3999C9.00747 6 9.5 5.50747 9.5 4.8999V2.1001Z" fill="#9898AB"/>
</svg>
