<svg width="23" height="11" viewBox="0 0 23 11" fill="none" xmlns="http://www.w3.org/2000/svg">
<g clip-path="url(#clip0_817_4217)">
<path d="M21.7598 6.17286L17.2898 10.6419C17.1974 10.7367 17.087 10.8121 16.9651 10.8636C16.8431 10.9152 16.7121 10.9418 16.5798 10.9419C16.3127 10.9397 16.0575 10.8318 15.8698 10.6419C15.6838 10.4545 15.5795 10.2013 15.5795 9.93736C15.5795 9.67342 15.6838 9.42018 15.8698 9.23286L18.6398 6.46186H3.41976L6.17976 9.23286C6.32044 9.37279 6.41631 9.5514 6.45518 9.74598C6.49405 9.94055 6.47416 10.1423 6.39804 10.3255C6.32191 10.5088 6.19299 10.6652 6.02769 10.775C5.86239 10.8847 5.66817 10.9428 5.46976 10.9419C5.33887 10.9417 5.20938 10.915 5.08908 10.8634C4.96878 10.8119 4.86016 10.7365 4.76976 10.6419L0.289756 6.17286C0.199805 6.08071 0.128499 5.97206 0.079756 5.85286C0.0561478 5.8094 0.0424856 5.76124 0.039756 5.71186C0.0110498 5.63173 -0.00251379 5.54695 -0.000243984 5.46186C-0.000115322 5.19933 0.104184 4.94757 0.289756 4.76186L0.339756 4.71186L4.76976 0.292862C4.96127 0.132679 5.20578 0.049931 5.45521 0.0608861C5.70464 0.0718412 5.94095 0.175707 6.11768 0.352064C6.29442 0.52842 6.39879 0.76451 6.41027 1.01392C6.42176 1.26332 6.33953 1.50801 6.17976 1.69986L3.41976 4.46186H18.6398L15.8698 1.69986C15.6838 1.51254 15.5795 1.2593 15.5795 0.995362C15.5795 0.731421 15.6838 0.478183 15.8698 0.290862C16.0583 0.103025 16.3136 -0.00244141 16.5798 -0.00244141C16.8459 -0.00244141 17.1012 0.103025 17.2898 0.290862L21.7598 4.75986C21.9469 4.94735 22.052 5.20144 22.052 5.46636C22.052 5.73128 21.9469 5.98538 21.7598 6.17286Z" fill="#FF7534"/>
</g>
<defs>
<clipPath id="clip0_817_4217">
<rect width="22.052" height="10.942" fill="white"/>
</clipPath>
</defs>
</svg>
