<svg width="140" height="120" viewBox="0 0 56 48" fill="none" xmlns="http://www.w3.org/2000/svg">
<path fill-rule="evenodd" clip-rule="evenodd" d="M12.536 42C13.228 40.804 14.52 40 16 40C17.48 40 18.772 40.804 19.464 42H54C55.104 42 56 42.896 56 44C56 45.104 55.104 46 54 46H19.464C18.772 47.196 17.48 48 16 48C14.52 48 13.228 47.196 12.536 46H2C0.896 46 0 45.104 0 44C0 42.896 0.896 42 2 42H12.536ZM56 6C56 2.686 53.314 0 50 0C40.314 0 15.686 0 6 0C2.686 0 0 2.686 0 6C0 12.148 0 23.852 0 30C0 33.314 2.686 36 6 36C15.686 36 40.314 36 50 36C53.314 36 56 33.314 56 30V6ZM52 6C52 4.896 51.104 4 50 4C40.314 4 15.686 4 6 4C4.896 4 4 4.896 4 6C4 12.148 4 23.852 4 30C4 31.104 4.896 32 6 32C15.686 32 40.314 32 50 32C51.104 32 52 31.104 52 30V6ZM33.2 19.6C33.704 19.222 34 18.63 34 18C34 17.37 33.704 16.778 33.2 16.4L25.2 10.4C24.594 9.946 23.784 9.872 23.106 10.212C22.428 10.55 22 11.242 22 12V24C22 24.758 22.428 25.45 23.106 25.788C23.784 26.128 24.594 26.054 25.2 25.6L33.2 19.6ZM26 20L28.666 18L26 16V20Z" fill="#D3D3D3"/>
</svg>
