<svg width="20" height="16" viewBox="0 0 20 16" fill="none" xmlns="http://www.w3.org/2000/svg">
<path fill-rule="evenodd" clip-rule="evenodd" d="M0.109987 7.43749C1.95424 2.90818 5.75922 0 10 0C14.2408 0 18.0458 2.90818 19.89 7.43749C20.0367 7.79765 20.0367 8.20235 19.89 8.56251C18.0458 13.0918 14.2408 16 10 16C5.75922 16 1.95424 13.0918 0.109987 8.56251C-0.0366622 8.20235 -0.0366622 7.79765 0.109987 7.43749ZM10 14.1497C13.419 14.1497 16.5537 11.7868 18.1499 8C16.5537 4.21325 13.419 1.85034 10 1.85034C6.58095 1.85034 3.44625 4.21325 1.85009 8C3.44625 11.7868 6.58095 14.1497 10 14.1497ZM10 11.6463C8.02123 11.6463 6.41711 10.0138 6.41711 8C6.41711 5.98623 8.02123 4.35374 10 4.35374C11.9788 4.35374 13.5829 5.98623 13.5829 8C13.5829 10.0138 11.9788 11.6463 10 11.6463ZM10 9.79592C10.9746 9.79592 11.7647 8.99186 11.7647 8C11.7647 7.00814 10.9746 6.20408 10 6.20408C9.02538 6.20408 8.23529 7.00814 8.23529 8C8.23529 8.99186 9.02538 9.79592 10 9.79592Z" fill="white"/>
</svg>
